<svg width="194" height="43" viewBox="0 0 194 43" fill="none" xmlns="http://www.w3.org/2000/svg">
<mask id="mask0_307_106" style="mask-type:alpha" maskUnits="userSpaceOnUse" x="0" y="5" width="194" height="34">
<path d="M31.2378 38.398V5H26.2658V38.398H31.2378ZM44.0068 11.176C45.2958 9.896 45.2957 7.974 44.0527 6.739C43.7609 6.43523 43.4106 6.19355 43.023 6.02847C42.6355 5.86338 42.2185 5.77828 41.7972 5.77828C41.376 5.77828 40.959 5.86338 40.5715 6.02847C40.1839 6.19355 39.8336 6.43523 39.5417 6.739C38.2987 7.974 38.2987 9.895 39.5417 11.176C40.8307 12.412 42.7638 12.412 44.0068 11.176ZM44.2828 38.398V15.523H39.3118V38.398H44.2828ZM77.4897 14.928C74.3147 14.928 71.9668 16.118 70.4478 18.542C69.0208 16.117 66.8577 14.928 63.9107 14.928C61.0107 14.928 58.8008 16.026 57.3288 18.268V15.523H52.3568V38.398H57.3288V25.588C57.3288 21.608 59.4457 19.548 62.4387 19.548C65.1997 19.548 66.7648 21.378 66.7648 24.536V38.398H71.7368V25.588C71.7368 21.562 73.6698 19.548 76.7538 19.548C79.5158 19.548 81.2188 21.378 81.2188 24.536V38.398H86.1908V24.215C86.1908 18.542 82.6908 14.928 77.4897 14.928ZM112.042 18.771C110.155 16.209 107.485 14.928 103.986 14.928C100.81 14.928 98.1397 16.072 95.8848 18.405C93.6288 20.738 92.5247 23.575 92.5247 26.961C92.5247 30.301 93.6288 33.183 95.8848 35.516C98.1397 37.849 100.81 38.993 103.986 38.993C107.485 38.993 110.155 37.712 112.042 35.104V38.398H117.014V15.523H112.042V18.771ZM99.5668 32.221C98.1868 30.804 97.4958 29.065 97.4958 26.961C97.4958 24.856 98.1858 23.117 99.5668 21.745C100.948 20.327 102.698 19.64 104.769 19.64C106.84 19.64 108.59 20.327 109.971 21.745C111.352 23.117 112.042 24.856 112.042 26.96C112.042 29.065 111.352 30.804 109.971 32.222C108.59 33.594 106.84 34.281 104.769 34.281C102.698 34.281 100.948 33.594 99.5668 32.221ZM137.953 15.523H132.245V9.118L127.273 10.582V15.522H123.038V20.281H127.273V31.261C127.273 37.255 130.358 39.313 137.953 38.398V33.96C134.178 34.143 132.245 34.19 132.245 31.261V20.281H137.953V15.523ZM166.053 29.065C166.191 28.195 166.237 27.509 166.237 27.006C166.237 23.666 165.133 20.784 162.969 18.451C160.806 16.117 158.044 14.928 154.683 14.928C151.139 14.928 148.193 16.072 145.937 18.405C143.681 20.693 142.531 23.529 142.531 26.961C142.531 30.438 143.681 33.32 145.983 35.608C148.285 37.849 151.323 38.993 155.051 38.993C159.517 38.993 162.877 37.346 165.133 34.006L161.036 31.627C159.701 33.503 157.721 34.464 155.098 34.464C151.277 34.464 148.469 32.542 147.732 29.065H166.053ZM147.686 25.039C148.377 21.562 150.955 19.412 154.637 19.412C157.905 19.412 160.529 21.333 161.22 25.039H147.686ZM183.642 38.993C188.107 38.993 192.02 36.705 194 33.045L189.719 30.621C188.614 32.771 186.312 34.143 183.596 34.143C181.571 34.143 179.868 33.457 178.487 32.085C177.152 30.712 176.461 29.019 176.461 26.96C176.461 24.902 177.152 23.209 178.487 21.836C179.868 20.464 181.571 19.778 183.596 19.778C186.358 19.778 188.568 21.104 189.626 23.3L193.907 20.83C192.066 17.216 188.107 14.928 183.642 14.928C180.19 14.928 177.29 16.072 174.942 18.405C172.641 20.693 171.49 23.529 171.49 26.961C171.49 30.346 172.641 33.183 174.942 35.516C177.29 37.849 180.19 38.993 183.642 38.993Z" fill="url(#paint0_linear_307_106)"/>
<path d="M3.40575 35.071C-1.13525 30.504 -1.13525 23.07 3.40575 18.503L7.83875 22.962C5.74375 25.069 1.84175 30.166 3.42875 35.047" fill="url(#paint1_linear_307_106)"/>
<path d="M3.42975 18.48C7.96975 13.913 15.3627 13.913 19.9037 18.48L15.4698 22.939C13.3738 20.831 8.30575 16.907 3.45175 18.503" fill="url(#paint2_linear_307_106)"/>
<path d="M19.9037 35.094C15.3627 39.661 7.96975 39.661 3.42875 35.094L7.86275 30.636C9.95775 32.743 15.0267 36.666 19.8797 35.071" fill="url(#paint3_linear_307_106)"/>
</mask>
<g mask="url(#mask0_307_106)">
<path d="M31.2378 38.398V5H26.2658V38.398H31.2378ZM44.0068 11.176C45.2958 9.896 45.2957 7.974 44.0527 6.739C43.7609 6.43523 43.4106 6.19355 43.023 6.02847C42.6355 5.86338 42.2185 5.77828 41.7972 5.77828C41.376 5.77828 40.959 5.86338 40.5715 6.02847C40.1839 6.19355 39.8336 6.43523 39.5417 6.739C38.2987 7.974 38.2987 9.895 39.5417 11.176C40.8307 12.412 42.7638 12.412 44.0068 11.176ZM44.2828 38.398V15.523H39.3118V38.398H44.2828ZM77.4897 14.928C74.3147 14.928 71.9668 16.118 70.4478 18.542C69.0208 16.117 66.8577 14.928 63.9107 14.928C61.0107 14.928 58.8008 16.026 57.3288 18.268V15.523H52.3568V38.398H57.3288V25.588C57.3288 21.608 59.4457 19.548 62.4387 19.548C65.1997 19.548 66.7648 21.378 66.7648 24.536V38.398H71.7368V25.588C71.7368 21.562 73.6698 19.548 76.7538 19.548C79.5158 19.548 81.2188 21.378 81.2188 24.536V38.398H86.1908V24.215C86.1908 18.542 82.6908 14.928 77.4897 14.928ZM112.042 18.771C110.155 16.209 107.485 14.928 103.986 14.928C100.81 14.928 98.1397 16.072 95.8848 18.405C93.6288 20.738 92.5247 23.575 92.5247 26.961C92.5247 30.301 93.6288 33.183 95.8848 35.516C98.1397 37.849 100.81 38.993 103.986 38.993C107.485 38.993 110.155 37.712 112.042 35.104V38.398H117.014V15.523H112.042V18.771ZM99.5668 32.221C98.1868 30.804 97.4958 29.065 97.4958 26.961C97.4958 24.856 98.1858 23.117 99.5668 21.745C100.948 20.327 102.698 19.64 104.769 19.64C106.84 19.64 108.59 20.327 109.971 21.745C111.352 23.117 112.042 24.856 112.042 26.96C112.042 29.065 111.352 30.804 109.971 32.222C108.59 33.594 106.84 34.281 104.769 34.281C102.698 34.281 100.948 33.594 99.5668 32.221ZM137.953 15.523H132.245V9.118L127.273 10.582V15.522H123.038V20.281H127.273V31.261C127.273 37.255 130.358 39.313 137.953 38.398V33.96C134.178 34.143 132.245 34.19 132.245 31.261V20.281H137.953V15.523ZM166.053 29.065C166.191 28.195 166.237 27.509 166.237 27.006C166.237 23.666 165.133 20.784 162.969 18.451C160.806 16.117 158.044 14.928 154.683 14.928C151.139 14.928 148.193 16.072 145.937 18.405C143.681 20.693 142.531 23.529 142.531 26.961C142.531 30.438 143.681 33.32 145.983 35.608C148.285 37.849 151.323 38.993 155.051 38.993C159.517 38.993 162.877 37.346 165.133 34.006L161.036 31.627C159.701 33.503 157.721 34.464 155.098 34.464C151.277 34.464 148.469 32.542 147.732 29.065H166.053ZM147.686 25.039C148.377 21.562 150.955 19.412 154.637 19.412C157.905 19.412 160.529 21.333 161.22 25.039H147.686ZM183.642 38.993C188.107 38.993 192.02 36.705 194 33.045L189.719 30.621C188.614 32.771 186.312 34.143 183.596 34.143C181.571 34.143 179.868 33.457 178.487 32.085C177.152 30.712 176.461 29.019 176.461 26.96C176.461 24.902 177.152 23.209 178.487 21.836C179.868 20.464 181.571 19.778 183.596 19.778C186.358 19.778 188.568 21.104 189.626 23.3L193.907 20.83C192.066 17.216 188.107 14.928 183.642 14.928C180.19 14.928 177.29 16.072 174.942 18.405C172.641 20.693 171.49 23.529 171.49 26.961C171.49 30.346 172.641 33.183 174.942 35.516C177.29 37.849 180.19 38.993 183.642 38.993Z" fill="url(#paint4_linear_307_106)"/>
<path d="M3.40575 35.071C-1.13525 30.504 -1.13525 23.07 3.40575 18.503L7.83875 22.962C5.74375 25.069 1.84175 30.166 3.42875 35.047" fill="url(#paint5_linear_307_106)"/>
<path d="M3.42975 18.48C7.96975 13.913 15.3627 13.913 19.9037 18.48L15.4698 22.939C13.3738 20.831 8.30575 16.907 3.45175 18.503" fill="url(#paint6_linear_307_106)"/>
<path d="M19.9037 35.094C15.3627 39.661 7.96975 39.661 3.42875 35.094L7.86275 30.636C9.95775 32.743 15.0267 36.666 19.8797 35.071" fill="url(#paint7_linear_307_106)"/>
<rect x="-29" y="-3" width="281" height="51" fill="#131027"/>
</g>
<defs>
<linearGradient id="paint0_linear_307_106" x1="-5.51524" y1="9.46723" x2="21.5648" y2="33.4802" gradientUnits="userSpaceOnUse">
<stop offset="0.323" stop-color="#00FF5A"/>
<stop offset="1" stop-color="#259B22"/>
</linearGradient>
<linearGradient id="paint1_linear_307_106" x1="-5.51524" y1="9.46723" x2="21.5648" y2="33.4802" gradientUnits="userSpaceOnUse">
<stop offset="0.323" stop-color="#00FF5A"/>
<stop offset="1" stop-color="#259B22"/>
</linearGradient>
<linearGradient id="paint2_linear_307_106" x1="-5.51524" y1="9.46723" x2="21.5648" y2="33.4802" gradientUnits="userSpaceOnUse">
<stop offset="0.323" stop-color="#00FF5A"/>
<stop offset="1" stop-color="#259B22"/>
</linearGradient>
<linearGradient id="paint3_linear_307_106" x1="-5.51524" y1="9.46723" x2="21.5648" y2="33.4802" gradientUnits="userSpaceOnUse">
<stop offset="0.323" stop-color="#00FF5A"/>
<stop offset="1" stop-color="#259B22"/>
</linearGradient>
<linearGradient id="paint4_linear_307_106" x1="-5.51524" y1="9.46723" x2="21.5648" y2="33.4802" gradientUnits="userSpaceOnUse">
<stop offset="0.323" stop-color="#00FF5A"/>
<stop offset="1" stop-color="#259B22"/>
</linearGradient>
<linearGradient id="paint5_linear_307_106" x1="-5.51524" y1="9.46723" x2="21.5648" y2="33.4802" gradientUnits="userSpaceOnUse">
<stop offset="0.323" stop-color="#00FF5A"/>
<stop offset="1" stop-color="#259B22"/>
</linearGradient>
<linearGradient id="paint6_linear_307_106" x1="-5.51524" y1="9.46723" x2="21.5648" y2="33.4802" gradientUnits="userSpaceOnUse">
<stop offset="0.323" stop-color="#00FF5A"/>
<stop offset="1" stop-color="#259B22"/>
</linearGradient>
<linearGradient id="paint7_linear_307_106" x1="-5.51524" y1="9.46723" x2="21.5648" y2="33.4802" gradientUnits="userSpaceOnUse">
<stop offset="0.323" stop-color="#00FF5A"/>
<stop offset="1" stop-color="#259B22"/>
</linearGradient>
</defs>
</svg>
