<svg width="161" height="71" viewBox="0 0 161 71" fill="none" xmlns="http://www.w3.org/2000/svg">
<g clip-path="url(#clip0_328_209)">
<path d="M15.8442 16.3933V30.4858L19.8384 23.6743H29.7286L29.9414 23.6727L29.7286 24.0695L15.8442 47.7373V52.0207L35.4426 18.5019H45.3232L22.4238 57.6529H22.456L20.6878 60.6698H12.8301V13.3779H48.0826L46.3128 16.3933H15.8442Z" fill="#131027"/>
<path d="M59.7343 20.7988V60.9256H35.6807L37.4618 57.9063H56.6872V25.9557L59.7343 20.7988Z" fill="#131027"/>
<path d="M63.236 9.81885L61.3421 13.0488L59.7786 15.6769L34.7612 58.3321L33.3896 60.6698H23.5042L53.3506 9.81885H63.236Z" fill="#131027"/>
<path d="M69.4624 25.1035C69.4624 21.659 72.1042 19.1938 75.6599 19.1938C77.6344 19.1938 79.2817 19.9118 80.3585 21.2186L78.6612 22.7787C78.3128 22.3553 77.8741 22.0153 77.3774 21.7836C76.8807 21.5519 76.3385 21.4344 75.7905 21.4396C73.6548 21.4396 72.1381 22.9416 72.1381 25.0971C72.1381 27.2525 73.6548 28.7545 75.7905 28.7545C76.3402 28.7608 76.8843 28.642 77.3815 28.4073C77.8788 28.1725 78.3163 27.8279 78.6612 27.3993L80.3585 28.9675C79.2817 30.2953 77.6296 31.0067 75.6438 31.0067C72.1042 31.0067 69.4624 28.548 69.4624 25.1035Z" fill="#131027"/>
<path d="M90.7006 21.5444H87.0466V30.8179H84.437V21.5444H80.7991V19.3906H90.7006V21.5444Z" fill="#131027"/>
<path d="M99.526 28.3689H94.2327L93.2221 30.8179H90.5142L95.5963 19.3906H98.2059L103.311 30.8195H100.538L99.526 28.3689ZM98.6943 26.3603L96.8842 21.9849L95.0741 26.3603H98.6943Z" fill="#131027"/>
<path d="M112.984 21.5444H109.33V30.8179H106.72V21.5444H103.083V19.3906H112.984V21.5444Z" fill="#131027"/>
<path d="M124.466 19.3906L119.605 28.4366C118.659 30.1984 117.305 31.0809 115.772 31.0809C115.133 31.072 114.501 30.9371 113.914 30.684L114.549 28.6754C114.917 28.8022 115.302 28.8739 115.691 28.8884C116.336 28.8884 116.849 28.5947 117.289 27.9091L117.387 27.7784L112.885 19.3906H115.708L118.741 25.5213L121.873 19.3906H124.466Z" fill="#131027"/>
<path d="M124.811 25.1035C124.811 21.659 127.453 19.1938 131.009 19.1938C132.983 19.1938 134.631 19.9118 135.707 21.2186L134.01 22.7787C133.662 22.3571 133.223 22.0187 132.728 21.7882C132.232 21.5576 131.691 21.4408 131.144 21.4461C129.009 21.4461 127.492 22.9481 127.492 25.1035C127.492 27.2589 129.009 28.761 131.144 28.761C131.694 28.7672 132.238 28.6485 132.735 28.4137C133.232 28.179 133.67 27.8343 134.015 27.4058L135.712 28.9739C134.635 30.2953 132.988 31.0132 130.998 31.0132C127.453 31.0067 124.811 28.548 124.811 25.1035Z" fill="#131027"/>
<path d="M77.7913 46.4107V47.6513H75.3736V46.3945C71.5052 46.1654 69.3872 44.3859 69.3872 41.3932C69.3872 38.4004 71.5084 36.6257 75.3736 36.3918V35.2173H77.7913V36.3757C81.6404 36.6048 83.7551 38.4004 83.7551 41.3883C83.7551 44.3762 81.6598 46.2138 77.7913 46.4107ZM75.3736 44.3359V38.4762C73.0574 38.6876 71.9484 39.6185 71.9484 41.398C71.9484 43.1775 73.1654 44.1084 75.3736 44.3359ZM81.2294 41.3819C81.2294 39.6185 80.0721 38.6715 77.8042 38.4779V44.3375C80.0979 44.1246 81.2229 43.1614 81.2229 41.3819H81.2294Z" fill="#131027"/>
<path d="M85.7427 35.7173H88.3684V43.1613L93.8164 35.7173H96.2954V47.1398H93.6858V39.7184L88.2378 47.1398H85.7427V35.7173Z" fill="#131027"/>
<path d="M109.607 35.7173V47.1398H106.966V42.4611H101.777V47.1398H99.1353V35.7173H101.777V40.2217H106.966V35.7173H109.607Z" fill="#131027"/>
<path d="M120.192 44.696H114.891L113.881 47.1402H111.173L116.263 35.7129H118.872L123.977 47.1402H121.205L120.192 44.696ZM119.361 42.6874L117.551 38.312L115.741 42.6874H119.361Z" fill="#131027"/>
<path d="M135.966 35.7173V47.1398H133.324V42.4611H128.138V47.1398H125.502V35.7173H128.144V40.2217H133.331V35.7173H135.966Z" fill="#131027"/>
<path d="M138.039 41.4302C138.039 37.9857 140.681 35.5205 144.237 35.5205C146.211 35.5205 147.859 36.2384 148.935 37.5453L147.238 39.1118C146.89 38.6884 146.451 38.3484 145.954 38.1167C145.458 37.885 144.915 37.7675 144.367 37.7727C142.232 37.7727 140.715 39.2748 140.715 41.4302C140.715 43.5856 142.232 45.0876 144.367 45.0876C144.917 45.0939 145.461 44.9752 145.958 44.7404C146.456 44.5057 146.893 44.161 147.238 43.7324L148.935 45.3006C147.859 46.6219 146.211 47.3415 144.221 47.3415C140.681 47.3415 138.039 44.8811 138.039 41.4302Z" fill="#131027"/>
<path d="M69.7559 53.2144H70.4882V55.3462L72.0053 53.2176H72.6949V56.4862H71.9689V54.369L70.4518 56.4862H69.7559V53.2144Z" fill="#131027"/>
<path d="M76.402 53.2144V56.4862H75.6664V55.1459H74.2143V56.4862H73.4851V53.2144H74.2143V54.5026H75.6601V53.2144H76.402Z" fill="#131027"/>
<path d="M80 55.5612C80 56.1312 79.5688 56.4813 78.7651 56.4813H77.1973V53.2144H78.6795C79.415 53.2144 79.851 53.5173 79.851 54.0596C79.8537 54.2117 79.8124 54.3612 79.7322 54.489C79.652 54.6169 79.5367 54.7174 79.4008 54.7778C79.5746 54.8146 79.7302 54.9135 79.8399 55.0569C79.9496 55.2003 80.0063 55.3789 80 55.5612ZM77.9297 54.5677H78.6145C78.9315 54.5677 79.1012 54.4325 79.1012 54.1703C79.1012 53.9081 78.9331 53.7746 78.6145 53.7746H77.9297V54.5677ZM79.2565 55.509C79.2565 55.2338 79.079 55.1035 78.7381 55.1035H77.9297V55.9292H78.7381C79.079 55.9211 79.2565 55.7859 79.2565 55.509Z" fill="#131027"/>
<path d="M83.0453 55.8739V56.4862H80.5818V53.2144H82.985V53.8202H81.3142V54.5319H82.79V55.1198H81.3142V55.8755L83.0453 55.8739Z" fill="#131027"/>
<path d="M83.4102 54.8477C83.4102 53.8624 84.1457 53.1572 85.1365 53.1572C85.3829 53.1468 85.6284 53.1935 85.8548 53.2938C86.0812 53.3942 86.2827 53.5457 86.4443 53.737L85.9688 54.1848C85.8725 54.0647 85.7514 53.9681 85.6144 53.9019C85.4773 53.8357 85.3276 53.8016 85.1761 53.8021C85.0425 53.8021 84.9101 53.8292 84.7867 53.8817C84.6632 53.9343 84.551 54.0113 84.4565 54.1084C84.362 54.2054 84.287 54.3207 84.2359 54.4476C84.1847 54.5744 84.1584 54.7104 84.1584 54.8477C84.1584 54.985 84.1847 55.1209 84.2359 55.2478C84.287 55.3746 84.362 55.4899 84.4565 55.587C84.551 55.6841 84.6632 55.7611 84.7867 55.8136C84.9101 55.8662 85.0425 55.8932 85.1761 55.8932C85.328 55.8935 85.4781 55.8588 85.6152 55.7917C85.7524 55.7247 85.8732 55.6269 85.9688 55.5056L86.4443 55.9535C86.2829 56.1466 86.0809 56.2995 85.8535 56.4005C85.6261 56.5015 85.3792 56.548 85.1317 56.5365C84.1489 56.5365 83.4102 55.8346 83.4102 54.8477Z" fill="#131027"/>
<path d="M89.3276 53.83H88.3098V56.4862H87.5838V53.83H86.5708V53.2144H89.3276V53.83Z" fill="#131027"/>
<path d="M89.7922 53.2144H90.523V55.3462L92.0401 53.2176H92.7313V56.4862H92.0037V54.369L90.4866 56.4862H89.7922V53.2144Z" fill="#131027"/>
<path d="M96.8554 55.8657V57.1686H96.1785V56.4862H93.52V53.2144H94.2524V55.8657H95.6696V53.2144H96.4084V55.8657H96.8554Z" fill="#131027"/>
<path d="M97.3418 53.2144H98.0726V55.3462L99.5897 53.2176H100.281V56.4862H99.5532V54.369L98.0361 56.4862H97.3418V53.2144Z" fill="#131027"/>
<path d="M100.847 54.8477C100.847 53.8706 101.582 53.1572 102.591 53.1572C103.599 53.1572 104.334 53.8722 104.334 54.8477C104.334 55.8232 103.594 56.5366 102.591 56.5366C101.587 56.5366 100.847 55.8184 100.847 54.8477ZM103.581 54.8477C103.577 54.6464 103.515 54.4509 103.403 54.2857C103.291 54.1205 103.134 53.9929 102.951 53.9191C102.769 53.8452 102.57 53.8283 102.378 53.8704C102.186 53.9125 102.011 54.0118 101.874 54.1559C101.737 54.3 101.645 54.4824 101.608 54.6802C101.572 54.8781 101.593 55.0826 101.669 55.2681C101.745 55.4536 101.873 55.6119 102.036 55.7232C102.2 55.8344 102.392 55.8935 102.588 55.8933C102.721 55.897 102.854 55.8724 102.978 55.8209C103.102 55.7693 103.214 55.6921 103.308 55.5939C103.401 55.4957 103.474 55.3788 103.521 55.2504C103.569 55.122 103.59 54.9849 103.583 54.8477H103.581Z" fill="#131027"/>
<path d="M107.813 53.2144V56.4862H107.077V55.1459H105.633V56.4862H104.897V53.2144H105.633V54.5026H107.077V53.2144H107.813Z" fill="#131027"/>
<path d="M111.526 53.2144V56.4862H110.789V55.1459H109.345V56.4862H108.616V53.2144H109.352V54.5026H110.796V53.2144H111.526Z" fill="#131027"/>
<path d="M114.48 55.781H113.003L112.722 56.4813H111.968L113.385 53.2144H114.112L115.539 56.4813H114.767L114.48 55.781ZM114.247 55.2061L113.743 53.9554L113.239 55.2061H114.247Z" fill="#131027"/>
<path d="M118.327 53.2144V56.4862H117.599V55.6182H116.927L116.364 56.4862H115.59L116.253 55.5009C116.047 55.4192 115.871 55.2721 115.751 55.081C115.631 54.8898 115.573 54.6645 115.586 54.4374C115.586 53.6769 116.117 53.2192 116.957 53.2192L118.327 53.2144ZM116.328 54.4228C116.328 54.8006 116.542 55.0156 116.962 55.0156H117.607V53.83H116.981C116.554 53.83 116.328 54.0303 116.328 54.4228Z" fill="#131027"/>
<path d="M121.639 55.1653H121.13V56.486H120.399V53.2142H121.13V54.5317H121.656L122.493 53.2109H123.27L122.23 54.7874L123.302 56.486H122.466L121.639 55.1653Z" fill="#131027"/>
<path d="M123.411 54.8477C123.411 53.8706 124.146 53.1572 125.155 53.1572C126.163 53.1572 126.898 53.8722 126.898 54.8477C126.898 55.8232 126.158 56.5366 125.155 56.5366C124.151 56.5366 123.411 55.8184 123.411 54.8477ZM126.145 54.8477C126.141 54.6465 126.079 54.451 125.967 54.2858C125.855 54.1207 125.698 53.9931 125.516 53.9192C125.334 53.8453 125.134 53.8283 124.942 53.8703C124.751 53.9123 124.576 54.0114 124.438 54.1553C124.301 54.2992 124.209 54.4815 124.172 54.6792C124.136 54.877 124.157 55.0814 124.232 55.267C124.308 55.4525 124.436 55.611 124.599 55.7224C124.762 55.8338 124.954 55.8932 125.15 55.8933C125.284 55.897 125.416 55.8724 125.54 55.8209C125.664 55.7693 125.777 55.6921 125.87 55.5939C125.963 55.4957 126.036 55.3788 126.084 55.2504C126.131 55.122 126.152 54.9849 126.145 54.8477Z" fill="#131027"/>
<path d="M130.353 56.4862V54.5319L129.416 56.1426H129.09L128.154 54.5694V56.4862H127.463V53.2144H128.072L129.262 55.2436L130.434 53.2144H131.043V56.4813L130.353 56.4862Z" fill="#131027"/>
<path d="M134.731 53.2144V56.4862H134V53.83H132.564V56.4862H131.833V53.2144H134.731Z" fill="#131027"/>
<path d="M137.674 55.781H136.198L135.916 56.4813H135.163L136.58 53.2144H137.308L138.734 56.4862H137.962L137.674 55.781ZM137.442 55.2061L136.938 53.9554L136.434 55.2061H137.442Z" fill="#131027"/>
<path d="M142.065 53.2144V56.4862H141.327V55.1459H139.883V56.4862H139.148V53.2144H139.883V54.5026H141.327V53.2144H142.065Z" fill="#131027"/>
<path d="M142.857 53.2144H143.589V55.3462L145.106 53.2176H145.796V56.4862H145.076V54.369L143.559 56.4862H142.857V53.2144Z" fill="#131027"/>
<path d="M149.133 53.2144V56.4862H148.405V55.6182H147.731L147.17 56.4862H146.393L147.056 55.5009C146.85 55.4192 146.674 55.2721 146.554 55.081C146.434 54.8898 146.376 54.6645 146.389 54.4374C146.389 53.6769 146.921 53.2192 147.762 53.2192L149.133 53.2144ZM147.137 54.4228C147.137 54.8006 147.351 55.0156 147.771 55.0156H148.405V53.83H147.771C147.36 53.83 147.137 54.0303 147.137 54.4228Z" fill="#131027"/>
</g>
<defs>
<clipPath id="clip0_328_209">
<rect width="137.908" height="50.8509" fill="white" transform="translate(12.0254 9.81885)"/>
</clipPath>
</defs>
</svg>
