<svg width="287" height="79" viewBox="0 0 287 79" fill="none" xmlns="http://www.w3.org/2000/svg">
<mask id="mask0_307_122" style="mask-type:alpha" maskUnits="userSpaceOnUse" x="8" y="26" width="271" height="41">
<path d="M52.0191 46.6463V30.2841H47.8807C46.8482 37.6949 45.8871 42.3214 44.9972 44.1636C44.1074 46.0059 42.6814 46.9279 40.7191 46.9298C39.9167 46.9368 39.119 46.8061 38.3605 46.5432V43.1213C38.8096 43.3005 39.2863 43.4003 39.7694 43.4163C40.0621 43.4162 40.3481 43.3285 40.5908 43.1643C40.9369 42.8836 41.2116 42.5244 41.3922 42.1162C41.6689 41.5836 42.0045 40.4945 42.399 38.8489C42.7935 37.2033 43.1567 35.2657 43.4885 33.0359L44.4496 26.719H56.2487V46.6463H52.0191Z" fill="#57642F"/>
<path d="M63.704 40.7044C63.8495 42.9094 65.1738 44.0109 67.6769 44.009C69.1393 44.037 70.5778 43.6349 71.8153 42.8521V45.9018C70.5262 46.632 68.8349 46.9966 66.7415 46.9956C64.4855 46.9956 62.7324 46.3571 61.4822 45.0799C60.2321 43.8028 59.6065 42.0236 59.6056 39.7423C59.6056 37.4686 60.272 35.6226 61.6049 34.2042C62.243 33.5111 63.0212 32.9628 63.8873 32.5959C64.7535 32.229 65.6876 32.0519 66.6274 32.0766C68.6352 32.0766 70.2048 32.6875 71.3362 33.9093C72.4675 35.131 73.0331 36.81 73.0331 38.9462V40.7044H63.704ZM69.1743 38.1043C69.1743 35.9767 68.3158 34.9134 66.5989 34.9144C66.2413 34.9174 65.8885 34.9969 65.564 35.1475C65.2394 35.2981 64.9505 35.5163 64.7165 35.7877C64.1405 36.4323 63.7822 37.2431 63.6926 38.1043H69.1743Z" fill="#57642F"/>
<path d="M86.3409 46.1191C85.3513 46.7032 83.9395 46.9924 82.1142 46.9924C79.9523 46.9924 78.2059 46.3319 76.8749 45.0109C75.5439 43.6898 74.8775 41.9793 74.8756 39.8794C74.8756 37.4597 75.5934 35.5535 77.0289 34.1609C78.4644 32.7683 80.3772 32.0715 82.7673 32.0705C84.3815 32.0705 85.5775 32.2939 86.3552 32.7406V36.3028C85.4623 35.6259 84.3738 35.2599 83.255 35.2605C81.9915 35.2605 80.9771 35.6461 80.2118 36.4174C79.4475 37.1905 79.0653 38.2472 79.0653 39.5959C79.0653 40.8988 79.4285 41.9259 80.1548 42.6771C80.8811 43.4283 81.8679 43.8034 83.1152 43.8025C84.2723 43.7844 85.3973 43.4172 86.3438 42.7487V46.1191H86.3409Z" fill="#57642F"/>
<path d="M102.715 46.6462H98.5649V40.6385H93.4141V46.6462H89.2757V32.4201H93.4141V37.7463H98.5649V32.4201H102.715V46.6462Z" fill="#57642F"/>
<path d="M105.661 39.5959C105.661 37.2535 106.359 35.4142 107.754 34.0779C109.15 32.7416 111.027 32.0724 113.384 32.0705C115.666 32.0705 117.477 32.7291 118.817 34.0464C120.158 35.3636 120.828 37.1323 120.828 39.3525C120.828 41.6863 120.141 43.5428 118.766 44.9221C117.391 46.3014 115.529 46.9915 113.179 46.9924C110.872 46.9924 109.042 46.33 107.689 45.0051C106.34 43.6822 105.664 41.8791 105.661 39.5959ZM109.851 39.5444C109.851 42.3821 111.004 43.8015 113.31 43.8025C115.523 43.8025 116.629 42.3449 116.627 39.4298C116.627 36.6522 115.513 35.2634 113.284 35.2634C112.805 35.2384 112.326 35.3267 111.887 35.5211C111.448 35.7156 111.06 36.0108 110.755 36.383C110.153 37.1304 109.851 38.1813 109.851 39.5444Z" fill="#57642F"/>
<path d="M137.59 46.6461H133.837V37.1019C133.504 37.7927 133.123 38.4587 132.696 39.095L127.687 46.6461H123.754V32.4201H127.533V41.6807C127.859 41.0279 128.169 40.4637 128.469 39.9827L133.503 32.4201H137.59V46.6461ZM135.129 26C135.062 27.1652 134.55 28.2596 133.7 29.0554C132.821 29.8171 131.688 30.2153 130.528 30.1693C129.359 30.2091 128.218 29.8018 127.337 29.0296C126.914 28.6466 126.577 28.1793 126.345 27.6576C126.113 27.1359 125.992 26.5713 125.99 26H128.361C128.497 27.26 129.232 27.8899 130.565 27.8899C131.846 27.8899 132.576 27.26 132.756 26H135.129Z" fill="#57642F"/>
<path d="M146.032 39.6992V46.6461H141.805V26.7216H148.633C153.57 26.7216 156.038 28.8225 156.037 33.0242C156.037 35.0659 155.292 36.702 153.801 37.9324C152.31 39.1627 150.446 39.7526 148.208 39.702H146.032V39.6992ZM146.032 36.4462H147.863C150.347 36.4462 151.59 35.3609 151.591 33.1903C151.591 31.0713 150.36 30.0118 147.9 30.0118H146.032V36.4462Z" fill="#57642F"/>
<path d="M161.895 40.7044C162.041 42.9094 163.365 44.0109 165.868 44.009C167.331 44.037 168.769 43.6349 170.007 42.8521V45.9018C168.717 46.632 167.026 46.9966 164.933 46.9956C162.677 46.9956 160.924 46.3571 159.673 45.0799C158.423 43.8028 157.798 42.0236 157.797 39.7423C157.797 37.4686 158.463 35.6226 159.796 34.2042C160.434 33.5111 161.212 32.9628 162.079 32.5959C162.945 32.229 163.879 32.0519 164.819 32.0766C166.826 32.0766 168.396 32.6875 169.527 33.9093C170.659 35.131 171.224 36.81 171.224 38.9462V40.7044H161.895ZM167.366 38.1043C167.366 35.9767 166.507 34.9134 164.79 34.9144C164.433 34.9174 164.08 34.9969 163.755 35.1475C163.431 35.2981 163.142 35.5163 162.908 35.7877C162.332 36.4323 161.973 37.2431 161.884 38.1043H167.366Z" fill="#57642F"/>
<path d="M184.532 46.1191C183.542 46.7032 182.131 46.9924 180.305 46.9924C178.143 46.9924 176.397 46.3319 175.066 45.0109C173.735 43.6898 173.069 41.9793 173.067 39.8794C173.067 37.4597 173.785 35.5535 175.22 34.1609C176.656 32.7683 178.568 32.0715 180.958 32.0705C182.573 32.0705 183.769 32.2939 184.546 32.7406V36.3028C183.654 35.6259 182.565 35.2599 181.446 35.2605C180.183 35.2605 179.168 35.6461 178.403 36.4174C177.639 37.1905 177.257 38.2472 177.257 39.5959C177.257 40.8988 177.62 41.9259 178.346 42.6771C179.072 43.4283 180.059 43.8034 181.306 43.8025C182.464 43.7844 183.589 43.4172 184.535 42.7487V46.1191H184.532Z" fill="#57642F"/>
<path d="M200.715 32.4201L194.874 47.9205C193.516 51.5228 191.484 53.324 188.776 53.324C187.935 53.3571 187.094 53.2437 186.292 52.9889V49.6558C186.85 49.9736 187.481 50.1376 188.123 50.1311C189.249 50.1311 190.044 49.5823 190.507 48.4846L191.289 46.6204L185.562 32.4201H190.148L192.914 41.3343C193.095 41.9253 193.219 42.5322 193.285 43.1469H193.362C193.456 42.5412 193.597 41.9438 193.784 41.3601L196.616 32.4201H200.715Z" fill="#57642F"/>
<path d="M206.673 44.9364V53.1949H202.534V32.4199H206.673V34.5933H206.724C207.198 33.8001 207.874 33.1484 208.683 32.7054C209.492 32.2624 210.404 32.0442 211.325 32.0734C213.127 32.0734 214.536 32.7062 215.551 33.9719C216.567 35.2376 217.075 36.9595 217.077 39.1377C217.077 41.5145 216.488 43.4187 215.309 44.8505C214.754 45.5445 214.047 46.0998 213.242 46.4725C212.437 46.8452 211.557 47.0251 210.671 46.9982C208.937 46.9982 207.622 46.3119 206.724 44.9393H206.673V44.9364ZM206.607 40.3547C206.57 41.2552 206.862 42.1383 207.429 42.8374C207.687 43.15 208.013 43.3993 208.381 43.5665C208.75 43.7338 209.152 43.8144 209.556 43.8024C210.028 43.8209 210.496 43.7198 210.918 43.5086C211.34 43.2974 211.703 42.9829 211.972 42.594C212.548 41.7894 212.836 40.6487 212.836 39.1721C212.836 36.5663 211.824 35.2624 209.799 35.2605C209.358 35.25 208.922 35.342 208.523 35.5293C208.124 35.7166 207.774 35.9941 207.5 36.3401C206.884 37.1301 206.568 38.115 206.61 39.1177V40.3547H206.607Z" fill="#57642F"/>
<path d="M230.63 46.1191C229.641 46.7032 228.229 46.9924 226.403 46.9924C224.242 46.9924 222.495 46.3319 221.164 45.0109C219.833 43.6898 219.167 41.9793 219.165 39.8794C219.165 37.4597 219.883 35.5535 221.318 34.1609C222.754 32.7683 224.667 32.0715 227.057 32.0705C228.671 32.0705 229.867 32.2939 230.644 32.7406V36.3028C229.752 35.6259 228.663 35.2599 227.544 35.2605C226.282 35.2605 225.267 35.6461 224.501 36.4174C223.737 37.1905 223.355 38.2472 223.355 39.5959C223.355 40.8988 223.718 41.9259 224.444 42.6771C225.17 43.4283 226.157 43.8034 227.405 43.8025C228.562 43.7844 229.687 43.4172 230.633 42.7487V46.1191H230.63Z" fill="#57642F"/>
<path d="M232.963 44.7817C232.956 44.4793 233.018 44.1792 233.145 43.9047C233.271 43.6301 233.459 43.3884 233.693 43.1982C234.18 42.7859 234.799 42.566 235.436 42.5797C236.071 42.561 236.689 42.7863 237.164 43.2097C237.386 43.4094 237.563 43.6537 237.685 43.9268C237.806 44.1999 237.869 44.4956 237.869 44.7946C237.869 45.0937 237.806 45.3894 237.685 45.6625C237.563 45.9355 237.386 46.1799 237.164 46.3796C236.666 46.796 236.032 47.0132 235.385 46.9895C234.756 47.0036 234.144 46.7786 233.673 46.3596C233.445 46.1664 233.263 45.9244 233.14 45.6514C233.017 45.3784 232.957 45.0813 232.963 44.7817Z" fill="#57642F"/>
<path d="M245.698 39.6992V46.6461H241.471V26.7216H248.299C253.236 26.7216 255.704 28.8225 255.703 33.0242C255.703 35.0659 254.957 36.702 253.467 37.9324C251.976 39.1627 250.112 39.7526 247.874 39.702H245.698V39.6992ZM245.698 36.4462H247.529C250.013 36.4462 251.255 35.3609 251.256 33.1903C251.256 31.0713 250.026 30.0118 247.566 30.0118H245.698V36.4462Z" fill="#57642F"/>
<path d="M270.18 44.4356V46.7522H266.093V44.4356H265.631C263.178 44.4356 261.199 43.6872 259.693 42.1906C258.187 40.6939 257.433 38.7495 257.431 36.3575C257.431 34.0323 258.172 32.1605 259.653 30.7421C261.134 29.3237 263.11 28.6145 265.58 28.6145H266.093V26.3237H270.18V28.6145H270.679C273.163 28.6145 275.149 29.3218 276.637 30.7364C278.125 32.151 278.868 34.0247 278.867 36.3575C278.867 38.7438 278.11 40.6862 276.594 42.1848C275.079 43.6834 273.091 44.4337 270.631 44.4356H270.18ZM266.093 41.1797V31.8016H265.836C265.279 31.78 264.724 31.8837 264.212 32.1052C263.7 32.3267 263.243 32.6603 262.876 33.0816C262.131 33.935 261.76 35.0603 261.761 36.4578C261.761 37.9153 262.128 39.0664 262.862 39.9112C263.234 40.3324 263.695 40.6647 264.212 40.8837C264.729 41.1027 265.287 41.2029 265.848 41.1769H266.093V41.1797ZM270.18 31.8016V41.1797H270.397C270.961 41.2042 271.523 41.1009 272.042 40.8773C272.561 40.6537 273.023 40.3157 273.394 39.8883C274.136 39.0263 274.508 37.8838 274.509 36.4606C274.509 35.0632 274.14 33.9378 273.4 33.0845C273.031 32.661 272.571 32.3262 272.056 32.1046C271.541 31.8831 270.983 31.7805 270.422 31.8045H270.18V31.8016Z" fill="#57642F"/>
<path d="M47.3416 62.8995H45.4022V57.098C45.3003 57.5598 45.1737 58.0158 45.0229 58.4639L43.5969 62.8995H41.7744L40.3427 58.4639C40.1915 58.0202 40.063 57.5691 39.9576 57.1123V62.8995H38.3262V55.5002H41.0471L42.4475 59.7897C42.6022 60.2238 42.7242 60.6689 42.8125 61.1213C42.8525 60.9123 42.978 60.4741 43.1919 59.8098L44.5723 55.5002H47.3388V62.8995H47.3416Z" fill="#57642F"/>
<path d="M55.5414 59.8071H50.8668C50.941 60.9525 51.6046 61.5252 52.8576 61.5252C53.5933 61.5393 54.3161 61.3296 54.931 60.9239V62.5103C54.1486 62.9213 53.2721 63.1179 52.3898 63.0801C51.2604 63.0801 50.382 62.7479 49.7545 62.0836C49.1271 61.4192 48.8133 60.4934 48.8133 59.306C48.7677 58.2525 49.1259 57.2215 49.8144 56.4252C50.1277 56.0674 50.5153 55.7828 50.9499 55.5913C51.3845 55.3999 51.8555 55.3062 52.3299 55.317C52.7686 55.293 53.2072 55.366 53.6148 55.5308C54.0223 55.6955 54.3889 55.9481 54.6886 56.2706C55.2562 56.9063 55.5395 57.7797 55.5385 58.8907V59.8071H55.5414ZM53.6077 58.4555C53.6077 57.3502 53.178 56.7975 52.3185 56.7975C52.1376 56.7998 51.9594 56.8417 51.7964 56.9203C51.6333 56.999 51.4893 57.1124 51.3745 57.2528C51.0846 57.5925 50.9054 58.0132 50.8611 58.4583H53.6077V58.4555Z" fill="#57642F"/>
<path d="M67.7768 62.8995H65.3126L62.9254 59.2056H62.8997V62.8995H60.8633V59.2056H60.8377L58.4562 62.8995H55.9977L58.7842 59.0252L56.0747 55.5002H58.5189L60.8377 58.9994H60.8633V55.5002H62.8997V58.9994H62.9254L65.2356 55.5002H67.6741L64.9703 59.0252L67.7768 62.8995Z" fill="#57642F"/>
<path d="M76.1476 65.5941H74.4478V62.8967H69.6135V65.5941H67.9365V61.3532H68.5725C69.5907 59.7153 70.1297 57.7643 70.1896 55.5002H75.0296V61.3532H76.1476V65.5941ZM72.9504 61.3532V57.0322H71.8153C71.7326 58.5456 71.3156 60.0216 70.5946 61.3532H72.9504Z" fill="#57642F"/>
<path d="M84.0849 55.5002L81.1587 63.5611C80.4771 65.4338 79.4589 66.3702 78.1041 66.3702C77.6816 66.3878 77.2594 66.3286 76.8578 66.1955V64.4631C77.1357 64.6279 77.4534 64.7131 77.7761 64.7093C78.041 64.7166 78.301 64.6369 78.5166 64.4824C78.7323 64.3279 78.8919 64.107 78.9712 63.8531L79.3619 62.8824L76.4927 55.4973H78.7915L80.1776 60.1334C80.2689 60.4408 80.3309 60.7563 80.363 61.0755H80.4029C80.4492 60.7603 80.5198 60.4491 80.614 60.1448L82.0343 55.4945H84.0849V55.5002Z" fill="#57642F"/>
<path d="M92.0707 62.8995H89.9915V59.7754H87.4104V62.8995H85.337V55.5002H87.4104V58.2692H89.9915V55.5002H92.0707V62.8995Z" fill="#57642F"/>
<path d="M94.2027 55.947C94.6062 55.7312 95.0399 55.5777 95.489 55.4917C95.941 55.3865 96.4026 55.3279 96.8665 55.317C98.8516 55.317 99.8441 56.3536 99.8441 58.4268V62.8968H97.8733V61.8201H97.8476C97.6472 62.2092 97.3415 62.5336 96.9656 62.756C96.5897 62.9784 96.1589 63.0897 95.7228 63.0772C95.4276 63.0911 95.1325 63.0453 94.8552 62.9425C94.5779 62.8397 94.324 62.682 94.1086 62.4787C93.9011 62.2637 93.7401 62.008 93.6356 61.7277C93.5311 61.4473 93.4853 61.1483 93.5011 60.8494C93.5011 59.4319 94.312 58.6072 95.9339 58.3753L97.8847 58.1004C97.8847 57.2385 97.455 56.808 96.5956 56.8089C95.7324 56.8137 94.8932 57.0945 94.1998 57.6107V55.947H94.2027ZM96.5442 59.5465C95.7941 59.6496 95.4196 60.0018 95.4205 60.6031C95.4157 60.728 95.4376 60.8524 95.4849 60.968C95.5321 61.0836 95.6035 61.1877 95.6943 61.2732C95.8977 61.4502 96.1613 61.5415 96.4302 61.528C96.6285 61.5335 96.8256 61.4942 97.0068 61.4129C97.1879 61.3316 97.3486 61.2104 97.4769 61.0584C97.7545 60.7354 97.9011 60.3194 97.8876 59.893V59.3632L96.5442 59.5465Z" fill="#57642F"/>
<path d="M103.758 62.0089V66.3042H101.684V55.5H103.758V56.6311H103.784C104.013 56.2235 104.349 55.8861 104.755 55.6551C105.161 55.4242 105.622 55.3082 106.088 55.3196C106.494 55.3014 106.899 55.3817 107.268 55.5537C107.637 55.7256 107.959 55.9842 108.207 56.3075C108.718 56.9662 108.972 57.8615 108.972 58.9935C108.972 60.2277 108.676 61.2176 108.085 61.963C107.813 62.3207 107.46 62.6084 107.056 62.8025C106.652 62.9967 106.208 63.0917 105.76 63.0798C105.365 63.0969 104.973 63.0064 104.625 62.8179C104.277 62.6293 103.986 62.3498 103.784 62.0089H103.758ZM103.727 59.6264C103.707 60.0921 103.852 60.5498 104.137 60.9178C104.264 61.0789 104.426 61.208 104.612 61.295C104.797 61.382 105 61.4244 105.204 61.419C105.443 61.4277 105.679 61.3743 105.891 61.2639C106.103 61.1535 106.283 60.9899 106.413 60.789C106.732 60.2534 106.883 59.6337 106.847 59.0107C106.847 57.6553 106.34 56.9776 105.327 56.9776C105.104 56.9727 104.883 57.0211 104.683 57.1187C104.483 57.2162 104.308 57.3603 104.174 57.5389C103.864 57.955 103.707 58.4658 103.729 58.985V59.6264H103.727Z" fill="#57642F"/>
<path d="M110.08 59.2315C110.08 58.0145 110.43 57.0581 111.129 56.3622C111.829 55.6664 112.769 55.318 113.95 55.317C115.094 55.317 116.001 55.6597 116.671 56.345C117.341 57.0304 117.677 57.9505 117.678 59.1055C117.678 60.3196 117.334 61.2856 116.645 62.0034C115.957 62.7212 115.024 63.0801 113.847 63.0801C112.692 63.0801 111.775 62.7355 111.095 62.0463C110.419 61.3562 110.081 60.4179 110.08 59.2315ZM112.179 59.2057C112.179 60.6833 112.757 61.4211 113.913 61.4192C115.023 61.4192 115.577 60.6613 115.576 59.1456C115.576 57.6995 115.017 56.9769 113.899 56.9779C113.656 56.9662 113.415 57.0128 113.194 57.1139C112.973 57.215 112.78 57.3677 112.63 57.5592C112.302 58.0427 112.143 58.6219 112.179 59.2057Z" fill="#57642F"/>
<path d="M126.589 65.5941H124.89V62.8967H120.055V65.5941H118.378V61.3532H119.014C120.032 59.7153 120.572 57.7643 120.631 55.5002H125.471V61.3532H126.589V65.5941ZM123.392 61.3532V57.0322H122.257C122.174 58.5456 121.757 60.0216 121.036 61.3532H123.392Z" fill="#57642F"/>
<path d="M134.686 62.8995H132.607V59.7754H130.026V62.8995H127.952V55.5002H130.026V58.2692H132.607V55.5002H134.686V62.8995Z" fill="#57642F"/>
<path d="M136.657 55.5002H138.731V58.1174H140.605C141.281 58.0743 141.949 58.2937 142.47 58.7302C142.696 58.9498 142.872 59.2156 142.987 59.5096C143.101 59.8035 143.152 60.1188 143.134 60.434C143.158 60.7665 143.11 61.1003 142.993 61.4123C142.876 61.7243 142.694 62.0073 142.458 62.2418C142.222 62.4763 141.938 62.6567 141.626 62.7708C141.314 62.8848 140.981 62.9297 140.65 62.9024H136.657V55.5002ZM138.731 59.5063V61.4936H139.86C140.622 61.4936 141.003 61.1528 141.004 60.4713C141.004 59.8298 140.629 59.5091 139.88 59.5091H138.731V59.5063ZM146.166 62.8996H144.087V55.5002H146.166V62.8996Z" fill="#57642F"/>
<path d="M155.068 62.8997H153.186V57.9343C153.02 58.2925 152.829 58.6389 152.615 58.9709L150.106 62.8968H148.135V55.4974H150.029V60.3139C150.191 59.976 150.348 59.6811 150.496 59.4319L153.02 55.4974H155.068V62.8997ZM153.836 52.1614C153.806 52.7629 153.55 53.3305 153.12 53.7507C152.686 54.1444 152.116 54.352 151.532 54.3291C150.942 54.3485 150.368 54.1358 149.932 53.7364C149.719 53.5337 149.549 53.2895 149.433 53.0186C149.317 52.7478 149.258 52.4561 149.258 52.1614H150.448C150.516 52.8172 150.884 53.1446 151.552 53.1436C152.193 53.1436 152.559 52.8162 152.65 52.1614H153.836Z" fill="#57642F"/>
<path d="M164.27 57.1524V62.8995H162.191V57.1524H160.246V55.5002H166.198V57.1524H164.27Z" fill="#57642F"/>
<path d="M166.995 59.2315C166.995 58.0145 167.345 57.0581 168.044 56.3622C168.744 55.6664 169.684 55.318 170.865 55.317C172.009 55.317 172.916 55.6597 173.586 56.345C174.259 57.0294 174.595 57.9496 174.593 59.1055C174.593 60.3196 174.249 61.2856 173.56 62.0034C172.872 62.7212 171.939 63.0801 170.762 63.0801C169.607 63.0801 168.69 62.7355 168.01 62.0463C167.334 61.3562 166.996 60.4179 166.995 59.2315ZM169.094 59.2057C169.094 60.6833 169.672 61.4211 170.828 61.4192C171.937 61.4192 172.492 60.6613 172.491 59.1456C172.491 57.6995 171.932 56.9769 170.814 56.9779C170.571 56.9662 170.33 57.0128 170.109 57.1139C169.888 57.215 169.695 57.3677 169.545 57.5592C169.217 58.0427 169.058 58.6219 169.094 59.2057Z" fill="#57642F"/>
<path d="M178.197 62.0089V66.3042H176.123V55.5H178.197V56.6311H178.223C178.452 56.2235 178.788 55.8861 179.194 55.6551C179.6 55.4242 180.061 55.3082 180.527 55.3196C180.933 55.3014 181.338 55.3817 181.707 55.5537C182.076 55.7256 182.398 55.9842 182.646 56.3075C183.157 56.9662 183.411 57.8615 183.41 58.9935C183.41 60.2277 183.115 61.2176 182.523 61.963C182.252 62.3207 181.899 62.6084 181.495 62.8025C181.091 62.9967 180.647 63.0917 180.199 63.0798C179.804 63.0969 179.412 63.0064 179.064 62.8179C178.716 62.6293 178.425 62.3498 178.223 62.0089H178.197ZM178.165 59.6264C178.146 60.0921 178.291 60.5498 178.576 60.9178C178.703 61.0789 178.865 61.208 179.051 61.295C179.236 61.382 179.438 61.4244 179.643 61.419C179.881 61.4277 180.118 61.3743 180.33 61.2639C180.542 61.1535 180.722 60.9899 180.852 60.789C181.171 60.2532 181.322 59.6337 181.286 59.0107C181.286 57.6553 180.779 56.9776 179.765 56.9776C179.543 56.9727 179.322 57.021 179.122 57.1186C178.922 57.2162 178.747 57.3603 178.613 57.5389C178.303 57.955 178.146 58.4658 178.168 58.985V59.6264H178.165Z" fill="#57642F"/>
<path d="M189.486 57.1524H187.007V62.8995H184.934V55.5002H189.486V57.1524Z" fill="#57642F"/>
<path d="M190.34 59.2315C190.34 58.0145 190.69 57.0581 191.389 56.3622C192.089 55.6664 193.029 55.318 194.21 55.317C195.354 55.317 196.261 55.6597 196.931 56.345C197.604 57.0294 197.94 57.9496 197.938 59.1055C197.938 60.3196 197.594 61.2856 196.905 62.0034C196.217 62.7212 195.284 63.0801 194.107 63.0801C192.952 63.0801 192.035 62.7355 191.355 62.0463C190.679 61.3562 190.341 60.4179 190.34 59.2315ZM192.439 59.2057C192.439 60.6833 193.017 61.4211 194.173 61.4192C195.282 61.4192 195.837 60.6613 195.836 59.1456C195.836 57.6995 195.277 56.9769 194.159 56.9779C193.916 56.9662 193.675 57.0128 193.454 57.1139C193.233 57.215 193.04 57.3677 192.89 57.5592C192.562 58.0427 192.403 58.6219 192.439 59.2057Z" fill="#57642F"/>
<path d="M199.474 62.8995V55.5002H203.338C205.011 55.5002 205.848 56.1025 205.848 57.3071C205.856 57.7044 205.718 58.0909 205.46 58.3923C205.188 58.7025 204.821 58.9123 204.416 58.988C204.883 59.0335 205.32 59.2388 205.654 59.5693C205.938 59.8705 206.092 60.2715 206.085 60.686C206.096 60.989 206.041 61.2907 205.921 61.5692C205.802 61.8476 205.622 62.0957 205.395 62.2953C204.873 62.7197 204.214 62.935 203.544 62.8995H199.474ZM201.538 56.8518V58.4639H202.688C203.381 58.4639 203.728 58.1804 203.729 57.6135C203.729 57.1037 203.404 56.8518 202.753 56.8518H201.538ZM201.538 59.7754V61.5222H202.879C203.606 61.5222 203.97 61.2167 203.971 60.6059C203.971 60.0522 203.593 59.7754 202.836 59.7754H201.538Z" fill="#57642F"/>
<path d="M207.694 55.5002H209.767V58.1174H211.641C212.318 58.0743 212.986 58.2937 213.506 58.7302C213.732 58.9498 213.909 59.2156 214.023 59.5096C214.138 59.8035 214.188 60.1188 214.171 60.434C214.195 60.7665 214.146 61.1003 214.03 61.4123C213.913 61.7243 213.73 62.0073 213.494 62.2418C213.258 62.4763 212.974 62.6567 212.663 62.7708C212.351 62.8848 212.018 62.9297 211.687 62.9024H207.694V55.5002ZM209.767 59.5063V61.4936H210.897C211.657 61.4936 212.038 61.1528 212.04 60.4713C212.04 59.8298 211.666 59.5091 210.917 59.5091H209.767V59.5063ZM217.203 62.8996H215.123V55.5002H217.203V62.8996Z" fill="#57642F"/>
<path d="M226.099 62.8997H224.217V57.9343C224.05 58.2925 223.86 58.6389 223.646 58.9709L221.137 62.8968H219.166V55.4974H221.06V60.3139C221.222 59.976 221.379 59.6811 221.527 59.4319L224.051 55.4974H226.099V62.8997ZM224.867 52.1614C224.837 52.7629 224.581 53.3305 224.151 53.7507C223.717 54.1444 223.147 54.352 222.563 54.3291C221.973 54.3485 221.399 54.1358 220.963 53.7364C220.749 53.5337 220.58 53.2895 220.464 53.0187C220.348 52.7478 220.289 52.4561 220.289 52.1614H221.479C221.547 52.8172 221.915 53.1446 222.583 53.1436C223.224 53.1436 223.59 52.8162 223.681 52.1614H224.867Z" fill="#57642F"/>
<path d="M239.038 62.8995H236.959V57.0465H234.378V62.8995H232.304V55.5002H239.038V62.8995Z" fill="#57642F"/>
<path d="M240.516 59.2315C240.516 58.0145 240.865 57.0581 241.565 56.3622C242.265 55.6664 243.205 55.318 244.386 55.317C245.529 55.317 246.436 55.6597 247.107 56.345C247.78 57.0294 248.115 57.9496 248.113 59.1055C248.113 60.3196 247.769 61.2856 247.081 62.0034C246.393 62.7212 245.46 63.0801 244.283 63.0801C243.128 63.0801 242.211 62.7355 241.531 62.0463C240.855 61.3562 240.516 60.4179 240.516 59.2315ZM242.615 59.2057C242.615 60.6833 243.193 61.4211 244.349 61.4192C245.458 61.4192 246.012 60.6613 246.011 59.1456C246.011 57.6995 245.452 56.9769 244.334 56.9779C244.092 56.9662 243.85 57.0128 243.63 57.1139C243.409 57.215 243.215 57.3677 243.065 57.5592C242.737 58.0427 242.579 58.6219 242.615 59.2057Z" fill="#57642F"/>
<path d="M251.653 62.0089V66.3042H249.579V55.5H251.653V56.6311H251.679C251.908 56.2235 252.244 55.8861 252.65 55.6551C253.056 55.4242 253.517 55.3082 253.983 55.3196C254.389 55.3014 254.794 55.3817 255.163 55.5537C255.532 55.7256 255.854 55.9842 256.102 56.3075C256.613 56.9662 256.867 57.8615 256.866 58.9935C256.866 60.2277 256.571 61.2176 255.979 61.963C255.708 62.3207 255.355 62.6084 254.951 62.8025C254.547 62.9967 254.103 63.0917 253.655 63.0798C253.26 63.0969 252.868 63.0064 252.52 62.8179C252.172 62.6293 251.881 62.3498 251.679 62.0089H251.653ZM251.622 59.6264C251.602 60.0921 251.747 60.5498 252.032 60.9178C252.159 61.0789 252.321 61.208 252.507 61.295C252.692 61.382 252.895 61.4244 253.099 61.419C253.337 61.4277 253.574 61.3743 253.786 61.2639C253.998 61.1535 254.178 60.9899 254.308 60.789C254.627 60.2532 254.778 59.6337 254.742 59.0107C254.742 57.6553 254.235 56.9776 253.222 56.9776C252.999 56.9727 252.778 57.021 252.578 57.1186C252.378 57.2162 252.203 57.3603 252.069 57.5389C251.759 57.955 251.602 58.4658 251.624 58.985V59.6264H251.622Z" fill="#57642F"/>
<path d="M261.632 57.1524V62.8995H259.553V57.1524H257.608V55.5002H263.56V57.1524H261.632Z" fill="#57642F"/>
<path d="M264.898 55.947C265.301 55.7308 265.735 55.5773 266.184 55.4917C266.636 55.3865 267.098 55.3279 267.562 55.317C269.547 55.317 270.539 56.3536 270.539 58.4268V62.8968H268.569V61.8201H268.543C268.342 62.2092 268.037 62.5336 267.661 62.756C267.285 62.9784 266.854 63.0897 266.418 63.0772C266.123 63.0911 265.828 63.0453 265.55 62.9425C265.273 62.8397 265.019 62.682 264.804 62.4787C264.596 62.2637 264.435 62.008 264.331 61.7277C264.226 61.4473 264.18 61.1483 264.196 60.8494C264.196 59.4319 265.007 58.6072 266.629 58.3753L268.58 58.1004C268.58 57.2385 268.15 56.808 267.291 56.8089C266.428 56.8137 265.588 57.0945 264.895 57.6107V55.947H264.898ZM267.242 59.5465C266.492 59.6496 266.118 60.0018 266.119 60.6031C266.114 60.728 266.136 60.8524 266.183 60.968C266.23 61.0836 266.302 61.1877 266.392 61.2732C266.595 61.4514 266.859 61.5429 267.128 61.528C267.327 61.5335 267.524 61.4942 267.705 61.4129C267.886 61.3316 268.047 61.2104 268.175 61.0584C268.453 60.7354 268.599 60.3194 268.586 59.893V59.3632L267.242 59.5465Z" fill="#57642F"/>
<path d="M278.867 62.8996H276.788V57.0465H275.53C275.251 59.512 274.844 61.1184 274.31 61.8658C274.097 62.2053 273.803 62.4857 273.454 62.6813C273.105 62.877 272.713 62.9815 272.313 62.9855C272.031 62.9898 271.751 62.9422 271.486 62.8451V61.3532C271.647 61.4287 271.822 61.4678 272 61.4678C272.41 61.4678 272.763 61.0783 273.058 60.2995C273.352 59.5206 273.624 57.9208 273.873 55.5002H278.867V62.8996Z" fill="#57642F"/>
<path d="M24.9272 62.7622H18.2419C18.183 62.7621 18.1264 62.7386 18.0847 62.6967C18.043 62.6548 18.0196 62.5981 18.0195 62.5389V53.2495C18.0196 53.1903 18.043 53.1336 18.0847 53.0917C18.1264 53.0498 18.183 53.0263 18.2419 53.0262H24.9272C24.9862 53.0263 25.0427 53.0498 25.0844 53.0917C25.1261 53.1336 25.1496 53.1903 25.1497 53.2495V62.5389C25.1496 62.5981 25.1261 62.6548 25.0844 62.6967C25.0427 62.7386 24.9862 62.7621 24.9272 62.7622Z" fill="#57642F"/>
<path d="M21.6302 26.9994C21.6078 26.9988 21.5855 27.0027 21.5646 27.0109C21.5406 27.0199 21.5186 27.0337 21.5 27.0514C21.4814 27.0691 21.4665 27.0904 21.4562 27.1139C21.3536 27.469 21.2366 27.8327 21.1026 28.225C21.0883 28.2679 21.074 28.308 21.0598 28.351V28.3539C21.0085 28.4999 20.9543 28.6488 20.9001 28.7977C20.334 30.3065 19.6788 31.78 18.9378 33.2104C18.7382 33.5999 18.5271 33.9979 18.3075 34.3988C18.0024 34.9572 17.6858 35.507 17.3692 36.0425C16.6343 37.2809 15.8307 38.4769 14.9621 39.6247L14.9563 39.6305C14.9563 39.6312 14.956 39.632 14.9555 39.6325C14.955 39.633 14.9543 39.6333 14.9535 39.6333L14.9022 39.6992L14.8965 39.7049L14.8651 39.745C14.7567 39.8853 14.6455 40.0228 14.5371 40.1602L14.5228 40.1803C14.4972 40.2118 14.4743 40.2404 14.4515 40.269L14.4487 40.2719C14.419 40.3092 14.4038 40.356 14.4059 40.4036C14.3998 40.4299 14.3978 40.4569 14.4002 40.4838C14.4067 40.5287 14.4284 40.57 14.4616 40.6008C14.4949 40.6315 14.5376 40.6499 14.5827 40.6528C14.5933 40.6532 14.6038 40.6523 14.6141 40.6499C14.6243 40.6466 14.6348 40.6447 14.6455 40.6442L14.6626 40.6413C14.694 40.6356 14.7225 40.627 14.7539 40.6213H14.7596C14.7938 40.6127 14.8252 40.6069 14.8565 40.6012H14.8594L14.8822 40.5955C14.8837 40.5957 14.8853 40.5955 14.8868 40.595C14.8883 40.5945 14.8896 40.5937 14.8908 40.5926L14.9136 40.5869H14.925C14.9304 40.5846 14.9362 40.5836 14.9421 40.584H14.9478C14.9506 40.584 14.9563 40.5812 14.9592 40.5812L14.9877 40.5754H15.002L15.0105 40.5726L15.0219 40.5697L15.0305 40.5668H15.0505C15.0818 40.5583 15.1132 40.5525 15.1446 40.5439H15.1474L15.1703 40.5382L15.1845 40.5353C15.2387 40.521 15.29 40.5096 15.3414 40.4953C15.3481 40.4937 15.3548 40.4918 15.3613 40.4895C15.464 40.4638 15.5695 40.4351 15.6779 40.4065L15.6865 40.4036L15.6922 40.4008C15.6966 40.3987 15.7015 40.3977 15.7064 40.3979L15.7179 40.395C15.7549 40.3836 15.7892 40.375 15.8234 40.3664L15.8319 40.3635L15.8433 40.3607H15.8576C16.3881 40.2089 16.8729 40.0457 17.3378 39.8653L17.3264 39.8939C17.0562 40.5633 16.7418 41.2138 16.3852 41.8411C16.0515 42.4367 15.6808 43.0295 15.2558 43.6509C15.0818 43.9057 14.8908 44.172 14.6911 44.4384C14.1492 45.1657 13.5674 45.873 12.9627 46.5373L12.9599 46.5402C12.8173 46.6977 12.669 46.8552 12.5235 47.0098L12.5207 47.0127C12.3667 47.173 12.2127 47.3334 12.0558 47.4852C12.0273 47.5138 11.9987 47.5424 11.9702 47.5682C11.8989 47.6398 11.8248 47.7085 11.7535 47.7801C11.7362 47.7973 11.7224 47.8179 11.7131 47.8405C11.7038 47.8631 11.6991 47.8874 11.6993 47.9118C11.6989 47.9647 11.7182 48.0157 11.7535 48.055C11.762 48.0636 11.7706 48.0693 11.7791 48.0779C11.7892 48.1201 11.8128 48.1578 11.8463 48.1853C11.8798 48.2127 11.9213 48.2283 11.9645 48.2297C11.978 48.2294 11.9914 48.2275 12.0045 48.224H12.013L12.3467 48.138H12.3496C12.3638 48.1352 12.3781 48.1295 12.3952 48.1266H12.398C12.418 48.1209 12.4351 48.118 12.4522 48.1123H12.4551L12.4722 48.1065H12.4779L12.515 48.098L12.5435 48.0894L12.5692 48.0836L12.592 48.0779H12.5948C12.7203 48.0435 12.8515 48.0063 12.9856 47.9662H12.997L13.1139 47.9319C13.1339 47.9261 13.151 47.9204 13.1681 47.9147C13.1709 47.9147 13.1709 47.9147 13.1738 47.9118C13.2166 47.8975 13.2622 47.8861 13.305 47.8717L13.3221 47.866H13.325C13.4048 47.8402 13.4818 47.8173 13.5588 47.7916H13.5617C13.9952 47.6512 14.4401 47.4966 14.8793 47.3277C14.8954 47.3245 14.9108 47.3187 14.925 47.3105C15.3129 47.1616 15.695 47.0012 16.0601 46.8351C15.9631 47.0699 15.8633 47.3105 15.7549 47.5482V47.551C15.3842 48.3757 14.9649 49.2004 14.4658 50.0709V50.0738C13.9068 51.0503 13.2765 52.041 12.5863 53.0204C11.6361 54.3676 10.6066 55.6566 9.50318 56.8804L9.50033 56.8833C9.30354 57.1009 9.10104 57.3186 8.90425 57.5247C8.88428 57.5476 8.86146 57.5677 8.8415 57.5906L8.78446 57.6479C8.75309 57.6822 8.71886 57.7166 8.68749 57.7509L8.68464 57.7538C8.56485 57.8769 8.44221 58.0029 8.31672 58.1289L8.30531 58.1404C8.28841 58.1578 8.27516 58.1784 8.26634 58.201C8.25752 58.2236 8.25332 58.2478 8.25397 58.2721C8.25337 58.2986 8.25811 58.3249 8.26792 58.3496C8.27772 58.3742 8.29238 58.3965 8.31101 58.4153L8.31672 58.421C8.32757 58.4583 8.34827 58.4919 8.37661 58.5184C8.4095 58.5462 8.45061 58.5623 8.49355 58.5642C8.50033 58.5647 8.50713 58.5637 8.51351 58.5613H8.52777C8.62189 58.5441 8.71886 58.527 8.82439 58.5041L8.86717 58.4955L8.87573 58.4926H8.88143L8.89569 58.4897H8.89854L8.91565 58.484H8.91851C8.94132 58.4783 8.96699 58.4754 8.98981 58.4697H8.99551C9.00567 58.4664 9.01622 58.4645 9.02689 58.464H9.02974L9.044 58.4611H9.04685L9.05826 58.4582C9.1809 58.4325 9.30354 58.4038 9.41762 58.3781C9.4322 58.3756 9.44653 58.3718 9.4604 58.3666L9.47751 58.3637L9.49177 58.3609H9.49463L9.603 58.3351L9.64293 58.3265L9.68286 58.3151H9.68571C11.089 57.9506 12.4561 57.4579 13.7699 56.8432C14.9519 56.2998 16.092 55.6691 17.181 54.9561L17.1838 54.9533C17.5204 54.7299 17.8426 54.5037 18.1421 54.2775L18.2049 54.3233C18.4854 54.5233 18.7854 54.6941 19.1004 54.833C19.4327 54.9811 19.7772 55.1 20.13 55.1881C20.4728 55.2741 20.8218 55.3325 21.1739 55.3628C21.3792 55.3828 21.5874 55.3914 21.7956 55.3914C21.9268 55.3914 22.0637 55.3885 22.1949 55.3799C22.5543 55.3598 22.9112 55.308 23.2616 55.2253C23.6088 55.1439 23.947 55.0278 24.2712 54.8788C24.5827 54.7394 24.875 54.5604 25.1411 54.3462C25.4406 54.5724 25.7657 54.7986 26.1023 55.022L26.1051 55.0249C27.1933 55.7398 28.3336 56.3716 29.5162 56.9148C30.8295 57.5307 32.1967 58.0234 33.6004 58.3867H33.6032L33.6374 58.3952L33.6431 58.3981C33.6556 58.404 33.6693 58.4069 33.6831 58.4067L33.7915 58.4325H33.8L33.8257 58.4382C33.8395 58.4433 33.8539 58.4472 33.8685 58.4496C33.9825 58.4754 34.1052 58.5041 34.2278 58.5298L34.2335 58.5327L34.2421 58.5356L34.2592 58.5384L34.2877 58.5441H34.2934L34.3647 58.5585H34.3704L34.3989 58.5642H34.4046L34.4161 58.5671L34.4588 58.5756C34.5644 58.5957 34.6613 58.6157 34.7555 58.6329H34.7669C34.7726 58.6329 34.7811 58.6358 34.7868 58.6358C34.8298 58.6339 34.8709 58.6178 34.9038 58.59C34.933 58.5643 34.9539 58.5304 34.9637 58.4926L34.9665 58.4897C34.985 58.4708 34.9995 58.4485 35.0093 58.4239C35.0191 58.3993 35.0239 58.373 35.0235 58.3466C35.0242 58.3223 35.02 58.2981 35.0112 58.2755C35.0024 58.2528 34.9891 58.2322 34.9722 58.2148L34.9608 58.2034C34.8382 58.0803 34.7155 57.9543 34.5929 57.8283L34.59 57.8254C34.5558 57.791 34.5244 57.7567 34.4931 57.7223L34.436 57.665L34.3733 57.5992C34.1765 57.393 33.9768 57.1754 33.7772 56.9577L33.7743 56.9549C32.6702 55.7316 31.6407 54.4426 30.6912 53.0948C30.0039 52.1155 29.3707 51.1247 28.8117 50.1482V50.1454C28.3155 49.2749 27.8934 48.4502 27.5226 47.6255V47.6226C27.4171 47.3849 27.3144 47.1444 27.2174 46.9096C27.5825 47.0757 27.9647 47.2332 28.3525 47.3849C28.3665 47.3936 28.382 47.3994 28.3982 47.4021C28.8374 47.5711 29.2823 47.7286 29.7158 47.866H29.7187C29.7957 47.8918 29.8755 47.9147 29.9526 47.9405H29.9554L29.9725 47.9462C30.0182 47.9605 30.0609 47.9748 30.1066 47.9863H30.1123L30.1636 48.0035C30.2007 48.0149 30.2349 48.0264 30.272 48.035L30.2834 48.012H30.2891C30.292 48.012 30.292 48.012 30.2948 48.0149C30.4231 48.0521 30.5543 48.0894 30.6855 48.1266H30.6884L30.7084 48.1323L30.734 48.138L30.7711 48.1495L30.7996 48.1581H30.8053L30.8224 48.1638H30.8253L30.8481 48.1695L30.8795 48.1781H30.8823L30.928 48.1896H30.9308C31.0392 48.2182 31.1504 48.2469 31.2645 48.2755H31.2702C31.2833 48.2788 31.2967 48.2807 31.3101 48.2812C31.3533 48.2798 31.3949 48.2642 31.4284 48.2368C31.4619 48.2094 31.4855 48.1717 31.4955 48.1295C31.5048 48.1226 31.5134 48.115 31.5212 48.1065C31.5398 48.0879 31.5542 48.0654 31.5635 48.0408C31.5729 48.0161 31.5769 47.9897 31.5754 47.9634C31.5755 47.9389 31.5708 47.9146 31.5615 47.892C31.5522 47.8694 31.5385 47.8489 31.5212 47.8316C31.4527 47.7658 31.3786 47.6942 31.3044 47.6197C31.2759 47.5911 31.2474 47.5625 31.2189 47.5367C31.0649 47.3821 30.908 47.2246 30.754 47.0642L30.7511 47.0614C30.6057 46.9067 30.4574 46.7492 30.3148 46.5917L30.3119 46.5889C29.7073 45.9217 29.1255 45.2172 28.5836 44.4899C28.3839 44.2207 28.1957 43.9573 28.0189 43.7024C27.591 43.081 27.2231 42.4883 26.8894 41.8927C26.5329 41.2653 26.2185 40.6148 25.9482 39.9455C25.9454 39.9369 25.9397 39.9254 25.9368 39.9168C26.4017 40.0972 26.8866 40.2604 27.4171 40.4122H27.4313L27.4399 40.4151L27.4513 40.4179C27.4884 40.4294 27.5226 40.438 27.5568 40.4466H27.5597L27.5682 40.4494C27.5726 40.4518 27.5776 40.4528 27.5825 40.4523H27.5882L27.5939 40.4552C27.6966 40.4838 27.8049 40.5124 27.9133 40.5411L27.919 40.5439L27.9304 40.5468C27.9846 40.5611 28.036 40.5726 28.0873 40.5869L28.1016 40.5898H28.1044C28.1101 40.5926 28.1187 40.5926 28.1244 40.5955H28.1272C28.1586 40.6041 28.19 40.6098 28.2213 40.6184H28.2413L28.2641 40.6241H28.2869L28.3012 40.627L28.3183 40.6298L28.3269 40.6327H28.3326L28.3497 40.6384L28.3554 40.6413H28.3611L28.3839 40.647L28.3925 40.6499C28.3982 40.6528 28.4067 40.6528 28.4124 40.6556H28.4153C28.4467 40.6642 28.478 40.6699 28.5094 40.6757H28.5123C28.5408 40.6814 28.5664 40.6871 28.5921 40.6928L28.6064 40.6957L28.6263 40.7129C28.6365 40.7162 28.6471 40.7181 28.6577 40.7186C28.668 40.721 28.6786 40.7219 28.6891 40.7215C28.7345 40.7196 28.7778 40.7016 28.8112 40.6706C28.8446 40.6397 28.8661 40.5978 28.8716 40.5525C28.8754 40.5257 28.8735 40.4984 28.8659 40.4723C28.8678 40.4486 28.8651 40.4248 28.8577 40.4022C28.8504 40.3796 28.8386 40.3586 28.8231 40.3406C28.7975 40.312 28.7747 40.2805 28.749 40.2519L28.7319 40.2318C28.6235 40.0972 28.5151 39.9598 28.4067 39.8195L28.3811 39.7851L28.3754 39.7765L28.3183 39.7021L28.3098 39.6935C27.4405 38.5461 26.6368 37.3501 25.9026 36.1112C25.5832 35.5786 25.2666 35.0259 24.9643 34.4675C24.7447 34.0666 24.5336 33.6657 24.334 33.2791C23.5924 31.85 22.9371 30.3774 22.3717 28.8693C22.3147 28.7175 22.2634 28.5686 22.212 28.4254V28.4226C22.1978 28.3796 22.1835 28.3395 22.1692 28.2966C22.0352 27.9071 21.9211 27.5463 21.8184 27.1913C21.8188 27.1678 21.815 27.1445 21.807 27.1225C21.7893 27.0738 21.7535 27.0338 21.7072 27.0109C21.682 27.0042 21.6562 27.0004 21.6302 26.9994ZM19.6993 32.5346C19.8733 32.1767 20.0416 31.8216 20.2013 31.4694C20.0416 31.8245 19.8733 32.1767 19.6993 32.5346Z" fill="#57642F"/>
</mask>
<g mask="url(#mask0_307_122)">
<path d="M52.0191 46.6463V30.2841H47.8807C46.8482 37.6949 45.8871 42.3214 44.9972 44.1636C44.1074 46.0059 42.6814 46.9279 40.7191 46.9298C39.9167 46.9368 39.119 46.8061 38.3605 46.5432V43.1213C38.8096 43.3005 39.2863 43.4003 39.7694 43.4163C40.0621 43.4162 40.3481 43.3285 40.5908 43.1643C40.9369 42.8836 41.2116 42.5244 41.3922 42.1162C41.6689 41.5836 42.0045 40.4945 42.399 38.8489C42.7935 37.2033 43.1567 35.2657 43.4885 33.0359L44.4496 26.719H56.2487V46.6463H52.0191Z" fill="#57642F"/>
<path d="M63.704 40.7044C63.8495 42.9094 65.1738 44.0109 67.6769 44.009C69.1393 44.037 70.5778 43.6349 71.8153 42.8521V45.9018C70.5262 46.632 68.8349 46.9966 66.7415 46.9956C64.4855 46.9956 62.7324 46.3571 61.4822 45.0799C60.2321 43.8028 59.6065 42.0236 59.6056 39.7423C59.6056 37.4686 60.272 35.6226 61.6049 34.2042C62.243 33.5111 63.0212 32.9628 63.8873 32.5959C64.7535 32.229 65.6876 32.0519 66.6274 32.0766C68.6352 32.0766 70.2048 32.6875 71.3362 33.9093C72.4675 35.131 73.0331 36.81 73.0331 38.9462V40.7044H63.704ZM69.1743 38.1043C69.1743 35.9767 68.3158 34.9134 66.5989 34.9144C66.2413 34.9174 65.8885 34.9969 65.564 35.1475C65.2394 35.2981 64.9505 35.5163 64.7165 35.7877C64.1405 36.4323 63.7822 37.2431 63.6926 38.1043H69.1743Z" fill="#57642F"/>
<path d="M86.3409 46.1191C85.3513 46.7032 83.9395 46.9924 82.1142 46.9924C79.9523 46.9924 78.2059 46.3319 76.8749 45.0109C75.5439 43.6898 74.8775 41.9793 74.8756 39.8794C74.8756 37.4597 75.5934 35.5535 77.0289 34.1609C78.4644 32.7683 80.3772 32.0715 82.7673 32.0705C84.3815 32.0705 85.5775 32.2939 86.3552 32.7406V36.3028C85.4623 35.6259 84.3738 35.2599 83.255 35.2605C81.9915 35.2605 80.9771 35.6461 80.2118 36.4174C79.4475 37.1905 79.0653 38.2472 79.0653 39.5959C79.0653 40.8988 79.4285 41.9259 80.1548 42.6771C80.8811 43.4283 81.8679 43.8034 83.1152 43.8025C84.2723 43.7844 85.3973 43.4172 86.3438 42.7487V46.1191H86.3409Z" fill="#57642F"/>
<path d="M102.715 46.6462H98.5649V40.6385H93.4141V46.6462H89.2757V32.4201H93.4141V37.7463H98.5649V32.4201H102.715V46.6462Z" fill="#57642F"/>
<path d="M105.661 39.5959C105.661 37.2535 106.359 35.4142 107.754 34.0779C109.15 32.7416 111.027 32.0724 113.384 32.0705C115.666 32.0705 117.477 32.7291 118.817 34.0464C120.158 35.3636 120.828 37.1323 120.828 39.3525C120.828 41.6863 120.141 43.5428 118.766 44.9221C117.391 46.3014 115.529 46.9915 113.179 46.9924C110.872 46.9924 109.042 46.33 107.689 45.0051C106.34 43.6822 105.664 41.8791 105.661 39.5959ZM109.851 39.5444C109.851 42.3821 111.004 43.8015 113.31 43.8025C115.523 43.8025 116.629 42.3449 116.627 39.4298C116.627 36.6522 115.513 35.2634 113.284 35.2634C112.805 35.2384 112.326 35.3267 111.887 35.5211C111.448 35.7156 111.06 36.0108 110.755 36.383C110.153 37.1304 109.851 38.1813 109.851 39.5444Z" fill="#57642F"/>
<path d="M137.59 46.6461H133.837V37.1019C133.504 37.7927 133.123 38.4587 132.696 39.095L127.687 46.6461H123.754V32.4201H127.533V41.6807C127.859 41.0279 128.169 40.4637 128.469 39.9827L133.503 32.4201H137.59V46.6461ZM135.129 26C135.062 27.1652 134.55 28.2596 133.7 29.0554C132.821 29.8171 131.688 30.2153 130.528 30.1693C129.359 30.2091 128.218 29.8018 127.337 29.0296C126.914 28.6466 126.577 28.1793 126.345 27.6576C126.113 27.1359 125.992 26.5713 125.99 26H128.361C128.497 27.26 129.232 27.8899 130.565 27.8899C131.846 27.8899 132.576 27.26 132.756 26H135.129Z" fill="#57642F"/>
<path d="M146.032 39.6992V46.6461H141.805V26.7216H148.633C153.57 26.7216 156.038 28.8225 156.037 33.0242C156.037 35.0659 155.292 36.702 153.801 37.9324C152.31 39.1627 150.446 39.7526 148.208 39.702H146.032V39.6992ZM146.032 36.4462H147.863C150.347 36.4462 151.59 35.3609 151.591 33.1903C151.591 31.0713 150.36 30.0118 147.9 30.0118H146.032V36.4462Z" fill="#57642F"/>
<path d="M161.895 40.7044C162.041 42.9094 163.365 44.0109 165.868 44.009C167.331 44.037 168.769 43.6349 170.007 42.8521V45.9018C168.717 46.632 167.026 46.9966 164.933 46.9956C162.677 46.9956 160.924 46.3571 159.673 45.0799C158.423 43.8028 157.798 42.0236 157.797 39.7423C157.797 37.4686 158.463 35.6226 159.796 34.2042C160.434 33.5111 161.212 32.9628 162.079 32.5959C162.945 32.229 163.879 32.0519 164.819 32.0766C166.826 32.0766 168.396 32.6875 169.527 33.9093C170.659 35.131 171.224 36.81 171.224 38.9462V40.7044H161.895ZM167.366 38.1043C167.366 35.9767 166.507 34.9134 164.79 34.9144C164.433 34.9174 164.08 34.9969 163.755 35.1475C163.431 35.2981 163.142 35.5163 162.908 35.7877C162.332 36.4323 161.973 37.2431 161.884 38.1043H167.366Z" fill="#57642F"/>
<path d="M184.532 46.1191C183.542 46.7032 182.131 46.9924 180.305 46.9924C178.143 46.9924 176.397 46.3319 175.066 45.0109C173.735 43.6898 173.069 41.9793 173.067 39.8794C173.067 37.4597 173.785 35.5535 175.22 34.1609C176.656 32.7683 178.568 32.0715 180.958 32.0705C182.573 32.0705 183.769 32.2939 184.546 32.7406V36.3028C183.654 35.6259 182.565 35.2599 181.446 35.2605C180.183 35.2605 179.168 35.6461 178.403 36.4174C177.639 37.1905 177.257 38.2472 177.257 39.5959C177.257 40.8988 177.62 41.9259 178.346 42.6771C179.072 43.4283 180.059 43.8034 181.306 43.8025C182.464 43.7844 183.589 43.4172 184.535 42.7487V46.1191H184.532Z" fill="#57642F"/>
<path d="M200.715 32.4201L194.874 47.9205C193.516 51.5228 191.484 53.324 188.776 53.324C187.935 53.3571 187.094 53.2437 186.292 52.9889V49.6558C186.85 49.9736 187.481 50.1376 188.123 50.1311C189.249 50.1311 190.044 49.5823 190.507 48.4846L191.289 46.6204L185.562 32.4201H190.148L192.914 41.3343C193.095 41.9253 193.219 42.5322 193.285 43.1469H193.362C193.456 42.5412 193.597 41.9438 193.784 41.3601L196.616 32.4201H200.715Z" fill="#57642F"/>
<path d="M206.673 44.9364V53.1949H202.534V32.4199H206.673V34.5933H206.724C207.198 33.8001 207.874 33.1484 208.683 32.7054C209.492 32.2624 210.404 32.0442 211.325 32.0734C213.127 32.0734 214.536 32.7062 215.551 33.9719C216.567 35.2376 217.075 36.9595 217.077 39.1377C217.077 41.5145 216.488 43.4187 215.309 44.8505C214.754 45.5445 214.047 46.0998 213.242 46.4725C212.437 46.8452 211.557 47.0251 210.671 46.9982C208.937 46.9982 207.622 46.3119 206.724 44.9393H206.673V44.9364ZM206.607 40.3547C206.57 41.2552 206.862 42.1383 207.429 42.8374C207.687 43.15 208.013 43.3993 208.381 43.5665C208.75 43.7338 209.152 43.8144 209.556 43.8024C210.028 43.8209 210.496 43.7198 210.918 43.5086C211.34 43.2974 211.703 42.9829 211.972 42.594C212.548 41.7894 212.836 40.6487 212.836 39.1721C212.836 36.5663 211.824 35.2624 209.799 35.2605C209.358 35.25 208.922 35.342 208.523 35.5293C208.124 35.7166 207.774 35.9941 207.5 36.3401C206.884 37.1301 206.568 38.115 206.61 39.1177V40.3547H206.607Z" fill="#57642F"/>
<path d="M230.63 46.1191C229.641 46.7032 228.229 46.9924 226.403 46.9924C224.242 46.9924 222.495 46.3319 221.164 45.0109C219.833 43.6898 219.167 41.9793 219.165 39.8794C219.165 37.4597 219.883 35.5535 221.318 34.1609C222.754 32.7683 224.667 32.0715 227.057 32.0705C228.671 32.0705 229.867 32.2939 230.644 32.7406V36.3028C229.752 35.6259 228.663 35.2599 227.544 35.2605C226.282 35.2605 225.267 35.6461 224.501 36.4174C223.737 37.1905 223.355 38.2472 223.355 39.5959C223.355 40.8988 223.718 41.9259 224.444 42.6771C225.17 43.4283 226.157 43.8034 227.405 43.8025C228.562 43.7844 229.687 43.4172 230.633 42.7487V46.1191H230.63Z" fill="#57642F"/>
<path d="M232.963 44.7817C232.956 44.4793 233.018 44.1792 233.145 43.9047C233.271 43.6301 233.459 43.3884 233.693 43.1982C234.18 42.7859 234.799 42.566 235.436 42.5797C236.071 42.561 236.689 42.7863 237.164 43.2097C237.386 43.4094 237.563 43.6537 237.685 43.9268C237.806 44.1999 237.869 44.4956 237.869 44.7946C237.869 45.0937 237.806 45.3894 237.685 45.6625C237.563 45.9355 237.386 46.1799 237.164 46.3796C236.666 46.796 236.032 47.0132 235.385 46.9895C234.756 47.0036 234.144 46.7786 233.673 46.3596C233.445 46.1664 233.263 45.9244 233.14 45.6514C233.017 45.3784 232.957 45.0813 232.963 44.7817Z" fill="#57642F"/>
<path d="M245.698 39.6992V46.6461H241.471V26.7216H248.299C253.236 26.7216 255.704 28.8225 255.703 33.0242C255.703 35.0659 254.957 36.702 253.467 37.9324C251.976 39.1627 250.112 39.7526 247.874 39.702H245.698V39.6992ZM245.698 36.4462H247.529C250.013 36.4462 251.255 35.3609 251.256 33.1903C251.256 31.0713 250.026 30.0118 247.566 30.0118H245.698V36.4462Z" fill="#57642F"/>
<path d="M270.18 44.4356V46.7522H266.093V44.4356H265.631C263.178 44.4356 261.199 43.6872 259.693 42.1906C258.187 40.6939 257.433 38.7495 257.431 36.3575C257.431 34.0323 258.172 32.1605 259.653 30.7421C261.134 29.3237 263.11 28.6145 265.58 28.6145H266.093V26.3237H270.18V28.6145H270.679C273.163 28.6145 275.149 29.3218 276.637 30.7364C278.125 32.151 278.868 34.0247 278.867 36.3575C278.867 38.7438 278.11 40.6862 276.594 42.1848C275.079 43.6834 273.091 44.4337 270.631 44.4356H270.18ZM266.093 41.1797V31.8016H265.836C265.279 31.78 264.724 31.8837 264.212 32.1052C263.7 32.3267 263.243 32.6603 262.876 33.0816C262.131 33.935 261.76 35.0603 261.761 36.4578C261.761 37.9153 262.128 39.0664 262.862 39.9112C263.234 40.3324 263.695 40.6647 264.212 40.8837C264.729 41.1027 265.287 41.2029 265.848 41.1769H266.093V41.1797ZM270.18 31.8016V41.1797H270.397C270.961 41.2042 271.523 41.1009 272.042 40.8773C272.561 40.6537 273.023 40.3157 273.394 39.8883C274.136 39.0263 274.508 37.8838 274.509 36.4606C274.509 35.0632 274.14 33.9378 273.4 33.0845C273.031 32.661 272.571 32.3262 272.056 32.1046C271.541 31.8831 270.983 31.7805 270.422 31.8045H270.18V31.8016Z" fill="#57642F"/>
<path d="M47.3416 62.8995H45.4022V57.098C45.3003 57.5598 45.1737 58.0158 45.0229 58.4639L43.5969 62.8995H41.7744L40.3427 58.4639C40.1915 58.0202 40.063 57.5691 39.9576 57.1123V62.8995H38.3262V55.5002H41.0471L42.4475 59.7897C42.6022 60.2238 42.7242 60.6689 42.8125 61.1213C42.8525 60.9123 42.978 60.4741 43.1919 59.8098L44.5723 55.5002H47.3388V62.8995H47.3416Z" fill="#57642F"/>
<path d="M55.5414 59.8071H50.8668C50.941 60.9525 51.6046 61.5252 52.8576 61.5252C53.5933 61.5393 54.3161 61.3296 54.931 60.9239V62.5103C54.1486 62.9213 53.2721 63.1179 52.3898 63.0801C51.2604 63.0801 50.382 62.7479 49.7545 62.0836C49.1271 61.4192 48.8133 60.4934 48.8133 59.306C48.7677 58.2525 49.1259 57.2215 49.8144 56.4252C50.1277 56.0674 50.5153 55.7828 50.9499 55.5913C51.3845 55.3999 51.8555 55.3062 52.3299 55.317C52.7686 55.293 53.2072 55.366 53.6148 55.5308C54.0223 55.6955 54.3889 55.9481 54.6886 56.2706C55.2562 56.9063 55.5395 57.7797 55.5385 58.8907V59.8071H55.5414ZM53.6077 58.4555C53.6077 57.3502 53.178 56.7975 52.3185 56.7975C52.1376 56.7998 51.9594 56.8417 51.7964 56.9203C51.6333 56.999 51.4893 57.1124 51.3745 57.2528C51.0846 57.5925 50.9054 58.0132 50.8611 58.4583H53.6077V58.4555Z" fill="#57642F"/>
<path d="M67.7768 62.8995H65.3126L62.9254 59.2056H62.8997V62.8995H60.8633V59.2056H60.8377L58.4562 62.8995H55.9977L58.7842 59.0252L56.0747 55.5002H58.5189L60.8377 58.9994H60.8633V55.5002H62.8997V58.9994H62.9254L65.2356 55.5002H67.6741L64.9703 59.0252L67.7768 62.8995Z" fill="#57642F"/>
<path d="M76.1476 65.5941H74.4478V62.8967H69.6135V65.5941H67.9365V61.3532H68.5725C69.5907 59.7153 70.1297 57.7643 70.1896 55.5002H75.0296V61.3532H76.1476V65.5941ZM72.9504 61.3532V57.0322H71.8153C71.7326 58.5456 71.3156 60.0216 70.5946 61.3532H72.9504Z" fill="#57642F"/>
<path d="M84.0849 55.5002L81.1587 63.5611C80.4771 65.4338 79.4589 66.3702 78.1041 66.3702C77.6816 66.3878 77.2594 66.3286 76.8578 66.1955V64.4631C77.1357 64.6279 77.4534 64.7131 77.7761 64.7093C78.041 64.7166 78.301 64.6369 78.5166 64.4824C78.7323 64.3279 78.8919 64.107 78.9712 63.8531L79.3619 62.8824L76.4927 55.4973H78.7915L80.1776 60.1334C80.2689 60.4408 80.3309 60.7563 80.363 61.0755H80.4029C80.4492 60.7603 80.5198 60.4491 80.614 60.1448L82.0343 55.4945H84.0849V55.5002Z" fill="#57642F"/>
<path d="M92.0707 62.8995H89.9915V59.7754H87.4104V62.8995H85.337V55.5002H87.4104V58.2692H89.9915V55.5002H92.0707V62.8995Z" fill="#57642F"/>
<path d="M94.2027 55.947C94.6062 55.7312 95.0399 55.5777 95.489 55.4917C95.941 55.3865 96.4026 55.3279 96.8665 55.317C98.8516 55.317 99.8441 56.3536 99.8441 58.4268V62.8968H97.8733V61.8201H97.8476C97.6472 62.2092 97.3415 62.5336 96.9656 62.756C96.5897 62.9784 96.1589 63.0897 95.7228 63.0772C95.4276 63.0911 95.1325 63.0453 94.8552 62.9425C94.5779 62.8397 94.324 62.682 94.1086 62.4787C93.9011 62.2637 93.7401 62.008 93.6356 61.7277C93.5311 61.4473 93.4853 61.1483 93.5011 60.8494C93.5011 59.4319 94.312 58.6072 95.9339 58.3753L97.8847 58.1004C97.8847 57.2385 97.455 56.808 96.5956 56.8089C95.7324 56.8137 94.8932 57.0945 94.1998 57.6107V55.947H94.2027ZM96.5442 59.5465C95.7941 59.6496 95.4196 60.0018 95.4205 60.6031C95.4157 60.728 95.4376 60.8524 95.4849 60.968C95.5321 61.0836 95.6035 61.1877 95.6943 61.2732C95.8977 61.4502 96.1613 61.5415 96.4302 61.528C96.6285 61.5335 96.8256 61.4942 97.0068 61.4129C97.1879 61.3316 97.3486 61.2104 97.4769 61.0584C97.7545 60.7354 97.9011 60.3194 97.8876 59.893V59.3632L96.5442 59.5465Z" fill="#57642F"/>
<path d="M103.758 62.0089V66.3042H101.684V55.5H103.758V56.6311H103.784C104.013 56.2235 104.349 55.8861 104.755 55.6551C105.161 55.4242 105.622 55.3082 106.088 55.3196C106.494 55.3014 106.899 55.3817 107.268 55.5537C107.637 55.7256 107.959 55.9842 108.207 56.3075C108.718 56.9662 108.972 57.8615 108.972 58.9935C108.972 60.2277 108.676 61.2176 108.085 61.963C107.813 62.3207 107.46 62.6084 107.056 62.8025C106.652 62.9967 106.208 63.0917 105.76 63.0798C105.365 63.0969 104.973 63.0064 104.625 62.8179C104.277 62.6293 103.986 62.3498 103.784 62.0089H103.758ZM103.727 59.6264C103.707 60.0921 103.852 60.5498 104.137 60.9178C104.264 61.0789 104.426 61.208 104.612 61.295C104.797 61.382 105 61.4244 105.204 61.419C105.443 61.4277 105.679 61.3743 105.891 61.2639C106.103 61.1535 106.283 60.9899 106.413 60.789C106.732 60.2534 106.883 59.6337 106.847 59.0107C106.847 57.6553 106.34 56.9776 105.327 56.9776C105.104 56.9727 104.883 57.0211 104.683 57.1187C104.483 57.2162 104.308 57.3603 104.174 57.5389C103.864 57.955 103.707 58.4658 103.729 58.985V59.6264H103.727Z" fill="#57642F"/>
<path d="M110.08 59.2315C110.08 58.0145 110.43 57.0581 111.129 56.3622C111.829 55.6664 112.769 55.318 113.95 55.317C115.094 55.317 116.001 55.6597 116.671 56.345C117.341 57.0304 117.677 57.9505 117.678 59.1055C117.678 60.3196 117.334 61.2856 116.645 62.0034C115.957 62.7212 115.024 63.0801 113.847 63.0801C112.692 63.0801 111.775 62.7355 111.095 62.0463C110.419 61.3562 110.081 60.4179 110.08 59.2315ZM112.179 59.2057C112.179 60.6833 112.757 61.4211 113.913 61.4192C115.023 61.4192 115.577 60.6613 115.576 59.1456C115.576 57.6995 115.017 56.9769 113.899 56.9779C113.656 56.9662 113.415 57.0128 113.194 57.1139C112.973 57.215 112.78 57.3677 112.63 57.5592C112.302 58.0427 112.143 58.6219 112.179 59.2057Z" fill="#57642F"/>
<path d="M126.589 65.5941H124.89V62.8967H120.055V65.5941H118.378V61.3532H119.014C120.032 59.7153 120.572 57.7643 120.631 55.5002H125.471V61.3532H126.589V65.5941ZM123.392 61.3532V57.0322H122.257C122.174 58.5456 121.757 60.0216 121.036 61.3532H123.392Z" fill="#57642F"/>
<path d="M134.686 62.8995H132.607V59.7754H130.026V62.8995H127.952V55.5002H130.026V58.2692H132.607V55.5002H134.686V62.8995Z" fill="#57642F"/>
<path d="M136.657 55.5002H138.731V58.1174H140.605C141.281 58.0743 141.949 58.2937 142.47 58.7302C142.696 58.9498 142.872 59.2156 142.987 59.5096C143.101 59.8035 143.152 60.1188 143.134 60.434C143.158 60.7665 143.11 61.1003 142.993 61.4123C142.876 61.7243 142.694 62.0073 142.458 62.2418C142.222 62.4763 141.938 62.6567 141.626 62.7708C141.314 62.8848 140.981 62.9297 140.65 62.9024H136.657V55.5002ZM138.731 59.5063V61.4936H139.86C140.622 61.4936 141.003 61.1528 141.004 60.4713C141.004 59.8298 140.629 59.5091 139.88 59.5091H138.731V59.5063ZM146.166 62.8996H144.087V55.5002H146.166V62.8996Z" fill="#57642F"/>
<path d="M155.068 62.8997H153.186V57.9343C153.02 58.2925 152.829 58.6389 152.615 58.9709L150.106 62.8968H148.135V55.4974H150.029V60.3139C150.191 59.976 150.348 59.6811 150.496 59.4319L153.02 55.4974H155.068V62.8997ZM153.836 52.1614C153.806 52.7629 153.55 53.3305 153.12 53.7507C152.686 54.1444 152.116 54.352 151.532 54.3291C150.942 54.3485 150.368 54.1358 149.932 53.7364C149.719 53.5337 149.549 53.2895 149.433 53.0186C149.317 52.7478 149.258 52.4561 149.258 52.1614H150.448C150.516 52.8172 150.884 53.1446 151.552 53.1436C152.193 53.1436 152.559 52.8162 152.65 52.1614H153.836Z" fill="#57642F"/>
<path d="M164.27 57.1524V62.8995H162.191V57.1524H160.246V55.5002H166.198V57.1524H164.27Z" fill="#57642F"/>
<path d="M166.995 59.2315C166.995 58.0145 167.345 57.0581 168.044 56.3622C168.744 55.6664 169.684 55.318 170.865 55.317C172.009 55.317 172.916 55.6597 173.586 56.345C174.259 57.0294 174.595 57.9496 174.593 59.1055C174.593 60.3196 174.249 61.2856 173.56 62.0034C172.872 62.7212 171.939 63.0801 170.762 63.0801C169.607 63.0801 168.69 62.7355 168.01 62.0463C167.334 61.3562 166.996 60.4179 166.995 59.2315ZM169.094 59.2057C169.094 60.6833 169.672 61.4211 170.828 61.4192C171.937 61.4192 172.492 60.6613 172.491 59.1456C172.491 57.6995 171.932 56.9769 170.814 56.9779C170.571 56.9662 170.33 57.0128 170.109 57.1139C169.888 57.215 169.695 57.3677 169.545 57.5592C169.217 58.0427 169.058 58.6219 169.094 59.2057Z" fill="#57642F"/>
<path d="M178.197 62.0089V66.3042H176.123V55.5H178.197V56.6311H178.223C178.452 56.2235 178.788 55.8861 179.194 55.6551C179.6 55.4242 180.061 55.3082 180.527 55.3196C180.933 55.3014 181.338 55.3817 181.707 55.5537C182.076 55.7256 182.398 55.9842 182.646 56.3075C183.157 56.9662 183.411 57.8615 183.41 58.9935C183.41 60.2277 183.115 61.2176 182.523 61.963C182.252 62.3207 181.899 62.6084 181.495 62.8025C181.091 62.9967 180.647 63.0917 180.199 63.0798C179.804 63.0969 179.412 63.0064 179.064 62.8179C178.716 62.6293 178.425 62.3498 178.223 62.0089H178.197ZM178.165 59.6264C178.146 60.0921 178.291 60.5498 178.576 60.9178C178.703 61.0789 178.865 61.208 179.051 61.295C179.236 61.382 179.438 61.4244 179.643 61.419C179.881 61.4277 180.118 61.3743 180.33 61.2639C180.542 61.1535 180.722 60.9899 180.852 60.789C181.171 60.2532 181.322 59.6337 181.286 59.0107C181.286 57.6553 180.779 56.9776 179.765 56.9776C179.543 56.9727 179.322 57.021 179.122 57.1186C178.922 57.2162 178.747 57.3603 178.613 57.5389C178.303 57.955 178.146 58.4658 178.168 58.985V59.6264H178.165Z" fill="#57642F"/>
<path d="M189.486 57.1524H187.007V62.8995H184.934V55.5002H189.486V57.1524Z" fill="#57642F"/>
<path d="M190.34 59.2315C190.34 58.0145 190.69 57.0581 191.389 56.3622C192.089 55.6664 193.029 55.318 194.21 55.317C195.354 55.317 196.261 55.6597 196.931 56.345C197.604 57.0294 197.94 57.9496 197.938 59.1055C197.938 60.3196 197.594 61.2856 196.905 62.0034C196.217 62.7212 195.284 63.0801 194.107 63.0801C192.952 63.0801 192.035 62.7355 191.355 62.0463C190.679 61.3562 190.341 60.4179 190.34 59.2315ZM192.439 59.2057C192.439 60.6833 193.017 61.4211 194.173 61.4192C195.282 61.4192 195.837 60.6613 195.836 59.1456C195.836 57.6995 195.277 56.9769 194.159 56.9779C193.916 56.9662 193.675 57.0128 193.454 57.1139C193.233 57.215 193.04 57.3677 192.89 57.5592C192.562 58.0427 192.403 58.6219 192.439 59.2057Z" fill="#57642F"/>
<path d="M199.474 62.8995V55.5002H203.338C205.011 55.5002 205.848 56.1025 205.848 57.3071C205.856 57.7044 205.718 58.0909 205.46 58.3923C205.188 58.7025 204.821 58.9123 204.416 58.988C204.883 59.0335 205.32 59.2388 205.654 59.5693C205.938 59.8705 206.092 60.2715 206.085 60.686C206.096 60.989 206.041 61.2907 205.921 61.5692C205.802 61.8476 205.622 62.0957 205.395 62.2953C204.873 62.7197 204.214 62.935 203.544 62.8995H199.474ZM201.538 56.8518V58.4639H202.688C203.381 58.4639 203.728 58.1804 203.729 57.6135C203.729 57.1037 203.404 56.8518 202.753 56.8518H201.538ZM201.538 59.7754V61.5222H202.879C203.606 61.5222 203.97 61.2167 203.971 60.6059C203.971 60.0522 203.593 59.7754 202.836 59.7754H201.538Z" fill="#57642F"/>
<path d="M207.694 55.5002H209.767V58.1174H211.641C212.318 58.0743 212.986 58.2937 213.506 58.7302C213.732 58.9498 213.909 59.2156 214.023 59.5096C214.138 59.8035 214.188 60.1188 214.171 60.434C214.195 60.7665 214.146 61.1003 214.03 61.4123C213.913 61.7243 213.73 62.0073 213.494 62.2418C213.258 62.4763 212.974 62.6567 212.663 62.7708C212.351 62.8848 212.018 62.9297 211.687 62.9024H207.694V55.5002ZM209.767 59.5063V61.4936H210.897C211.657 61.4936 212.038 61.1528 212.04 60.4713C212.04 59.8298 211.666 59.5091 210.917 59.5091H209.767V59.5063ZM217.203 62.8996H215.123V55.5002H217.203V62.8996Z" fill="#57642F"/>
<path d="M226.099 62.8997H224.217V57.9343C224.05 58.2925 223.86 58.6389 223.646 58.9709L221.137 62.8968H219.166V55.4974H221.06V60.3139C221.222 59.976 221.379 59.6811 221.527 59.4319L224.051 55.4974H226.099V62.8997ZM224.867 52.1614C224.837 52.7629 224.581 53.3305 224.151 53.7507C223.717 54.1444 223.147 54.352 222.563 54.3291C221.973 54.3485 221.399 54.1358 220.963 53.7364C220.749 53.5337 220.58 53.2895 220.464 53.0187C220.348 52.7478 220.289 52.4561 220.289 52.1614H221.479C221.547 52.8172 221.915 53.1446 222.583 53.1436C223.224 53.1436 223.59 52.8162 223.681 52.1614H224.867Z" fill="#57642F"/>
<path d="M239.038 62.8995H236.959V57.0465H234.378V62.8995H232.304V55.5002H239.038V62.8995Z" fill="#57642F"/>
<path d="M240.516 59.2315C240.516 58.0145 240.865 57.0581 241.565 56.3622C242.265 55.6664 243.205 55.318 244.386 55.317C245.529 55.317 246.436 55.6597 247.107 56.345C247.78 57.0294 248.115 57.9496 248.113 59.1055C248.113 60.3196 247.769 61.2856 247.081 62.0034C246.393 62.7212 245.46 63.0801 244.283 63.0801C243.128 63.0801 242.211 62.7355 241.531 62.0463C240.855 61.3562 240.516 60.4179 240.516 59.2315ZM242.615 59.2057C242.615 60.6833 243.193 61.4211 244.349 61.4192C245.458 61.4192 246.012 60.6613 246.011 59.1456C246.011 57.6995 245.452 56.9769 244.334 56.9779C244.092 56.9662 243.85 57.0128 243.63 57.1139C243.409 57.215 243.215 57.3677 243.065 57.5592C242.737 58.0427 242.579 58.6219 242.615 59.2057Z" fill="#57642F"/>
<path d="M251.653 62.0089V66.3042H249.579V55.5H251.653V56.6311H251.679C251.908 56.2235 252.244 55.8861 252.65 55.6551C253.056 55.4242 253.517 55.3082 253.983 55.3196C254.389 55.3014 254.794 55.3817 255.163 55.5537C255.532 55.7256 255.854 55.9842 256.102 56.3075C256.613 56.9662 256.867 57.8615 256.866 58.9935C256.866 60.2277 256.571 61.2176 255.979 61.963C255.708 62.3207 255.355 62.6084 254.951 62.8025C254.547 62.9967 254.103 63.0917 253.655 63.0798C253.26 63.0969 252.868 63.0064 252.52 62.8179C252.172 62.6293 251.881 62.3498 251.679 62.0089H251.653ZM251.622 59.6264C251.602 60.0921 251.747 60.5498 252.032 60.9178C252.159 61.0789 252.321 61.208 252.507 61.295C252.692 61.382 252.895 61.4244 253.099 61.419C253.337 61.4277 253.574 61.3743 253.786 61.2639C253.998 61.1535 254.178 60.9899 254.308 60.789C254.627 60.2532 254.778 59.6337 254.742 59.0107C254.742 57.6553 254.235 56.9776 253.222 56.9776C252.999 56.9727 252.778 57.021 252.578 57.1186C252.378 57.2162 252.203 57.3603 252.069 57.5389C251.759 57.955 251.602 58.4658 251.624 58.985V59.6264H251.622Z" fill="#57642F"/>
<path d="M261.632 57.1524V62.8995H259.553V57.1524H257.608V55.5002H263.56V57.1524H261.632Z" fill="#57642F"/>
<path d="M264.898 55.947C265.301 55.7308 265.735 55.5773 266.184 55.4917C266.636 55.3865 267.098 55.3279 267.562 55.317C269.547 55.317 270.539 56.3536 270.539 58.4268V62.8968H268.569V61.8201H268.543C268.342 62.2092 268.037 62.5336 267.661 62.756C267.285 62.9784 266.854 63.0897 266.418 63.0772C266.123 63.0911 265.828 63.0453 265.55 62.9425C265.273 62.8397 265.019 62.682 264.804 62.4787C264.596 62.2637 264.435 62.008 264.331 61.7277C264.226 61.4473 264.18 61.1483 264.196 60.8494C264.196 59.4319 265.007 58.6072 266.629 58.3753L268.58 58.1004C268.58 57.2385 268.15 56.808 267.291 56.8089C266.428 56.8137 265.588 57.0945 264.895 57.6107V55.947H264.898ZM267.242 59.5465C266.492 59.6496 266.118 60.0018 266.119 60.6031C266.114 60.728 266.136 60.8524 266.183 60.968C266.23 61.0836 266.302 61.1877 266.392 61.2732C266.595 61.4514 266.859 61.5429 267.128 61.528C267.327 61.5335 267.524 61.4942 267.705 61.4129C267.886 61.3316 268.047 61.2104 268.175 61.0584C268.453 60.7354 268.599 60.3194 268.586 59.893V59.3632L267.242 59.5465Z" fill="#57642F"/>
<path d="M278.867 62.8996H276.788V57.0465H275.53C275.251 59.512 274.844 61.1184 274.31 61.8658C274.097 62.2053 273.803 62.4857 273.454 62.6813C273.105 62.877 272.713 62.9815 272.313 62.9855C272.031 62.9898 271.751 62.9422 271.486 62.8451V61.3532C271.647 61.4287 271.822 61.4678 272 61.4678C272.41 61.4678 272.763 61.0783 273.058 60.2995C273.352 59.5206 273.624 57.9208 273.873 55.5002H278.867V62.8996Z" fill="#57642F"/>
<path d="M24.9272 62.7622H18.2419C18.183 62.7621 18.1264 62.7386 18.0847 62.6967C18.043 62.6548 18.0196 62.5981 18.0195 62.5389V53.2495C18.0196 53.1903 18.043 53.1336 18.0847 53.0917C18.1264 53.0498 18.183 53.0263 18.2419 53.0262H24.9272C24.9862 53.0263 25.0427 53.0498 25.0844 53.0917C25.1261 53.1336 25.1496 53.1903 25.1497 53.2495V62.5389C25.1496 62.5981 25.1261 62.6548 25.0844 62.6967C25.0427 62.7386 24.9862 62.7621 24.9272 62.7622Z" fill="#57642F"/>
<path d="M21.6302 26.9994C21.6078 26.9988 21.5855 27.0027 21.5646 27.0109C21.5406 27.0199 21.5186 27.0337 21.5 27.0514C21.4814 27.0691 21.4665 27.0904 21.4562 27.1139C21.3536 27.469 21.2366 27.8327 21.1026 28.225C21.0883 28.2679 21.074 28.308 21.0598 28.351V28.3539C21.0085 28.4999 20.9543 28.6488 20.9001 28.7977C20.334 30.3065 19.6788 31.78 18.9378 33.2104C18.7382 33.5999 18.5271 33.9979 18.3075 34.3988C18.0024 34.9572 17.6858 35.507 17.3692 36.0425C16.6343 37.2809 15.8307 38.4769 14.9621 39.6247L14.9563 39.6305C14.9563 39.6312 14.956 39.632 14.9555 39.6325C14.955 39.633 14.9543 39.6333 14.9535 39.6333L14.9022 39.6992L14.8965 39.7049L14.8651 39.745C14.7567 39.8853 14.6455 40.0228 14.5371 40.1602L14.5228 40.1803C14.4972 40.2118 14.4743 40.2404 14.4515 40.269L14.4487 40.2719C14.419 40.3092 14.4038 40.356 14.4059 40.4036C14.3998 40.4299 14.3978 40.4569 14.4002 40.4838C14.4067 40.5287 14.4284 40.57 14.4616 40.6008C14.4949 40.6315 14.5376 40.6499 14.5827 40.6528C14.5933 40.6532 14.6038 40.6523 14.6141 40.6499C14.6243 40.6466 14.6348 40.6447 14.6455 40.6442L14.6626 40.6413C14.694 40.6356 14.7225 40.627 14.7539 40.6213H14.7596C14.7938 40.6127 14.8252 40.6069 14.8565 40.6012H14.8594L14.8822 40.5955C14.8837 40.5957 14.8853 40.5955 14.8868 40.595C14.8883 40.5945 14.8896 40.5937 14.8908 40.5926L14.9136 40.5869H14.925C14.9304 40.5846 14.9362 40.5836 14.9421 40.584H14.9478C14.9506 40.584 14.9563 40.5812 14.9592 40.5812L14.9877 40.5754H15.002L15.0105 40.5726L15.0219 40.5697L15.0305 40.5668H15.0505C15.0818 40.5583 15.1132 40.5525 15.1446 40.5439H15.1474L15.1703 40.5382L15.1845 40.5353C15.2387 40.521 15.29 40.5096 15.3414 40.4953C15.3481 40.4937 15.3548 40.4918 15.3613 40.4895C15.464 40.4638 15.5695 40.4351 15.6779 40.4065L15.6865 40.4036L15.6922 40.4008C15.6966 40.3987 15.7015 40.3977 15.7064 40.3979L15.7179 40.395C15.7549 40.3836 15.7892 40.375 15.8234 40.3664L15.8319 40.3635L15.8433 40.3607H15.8576C16.3881 40.2089 16.8729 40.0457 17.3378 39.8653L17.3264 39.8939C17.0562 40.5633 16.7418 41.2138 16.3852 41.8411C16.0515 42.4367 15.6808 43.0295 15.2558 43.6509C15.0818 43.9057 14.8908 44.172 14.6911 44.4384C14.1492 45.1657 13.5674 45.873 12.9627 46.5373L12.9599 46.5402C12.8173 46.6977 12.669 46.8552 12.5235 47.0098L12.5207 47.0127C12.3667 47.173 12.2127 47.3334 12.0558 47.4852C12.0273 47.5138 11.9987 47.5424 11.9702 47.5682C11.8989 47.6398 11.8248 47.7085 11.7535 47.7801C11.7362 47.7973 11.7224 47.8179 11.7131 47.8405C11.7038 47.8631 11.6991 47.8874 11.6993 47.9118C11.6989 47.9647 11.7182 48.0157 11.7535 48.055C11.762 48.0636 11.7706 48.0693 11.7791 48.0779C11.7892 48.1201 11.8128 48.1578 11.8463 48.1853C11.8798 48.2127 11.9213 48.2283 11.9645 48.2297C11.978 48.2294 11.9914 48.2275 12.0045 48.224H12.013L12.3467 48.138H12.3496C12.3638 48.1352 12.3781 48.1295 12.3952 48.1266H12.398C12.418 48.1209 12.4351 48.118 12.4522 48.1123H12.4551L12.4722 48.1065H12.4779L12.515 48.098L12.5435 48.0894L12.5692 48.0836L12.592 48.0779H12.5948C12.7203 48.0435 12.8515 48.0063 12.9856 47.9662H12.997L13.1139 47.9319C13.1339 47.9261 13.151 47.9204 13.1681 47.9147C13.1709 47.9147 13.1709 47.9147 13.1738 47.9118C13.2166 47.8975 13.2622 47.8861 13.305 47.8717L13.3221 47.866H13.325C13.4048 47.8402 13.4818 47.8173 13.5588 47.7916H13.5617C13.9952 47.6512 14.4401 47.4966 14.8793 47.3277C14.8954 47.3245 14.9108 47.3187 14.925 47.3105C15.3129 47.1616 15.695 47.0012 16.0601 46.8351C15.9631 47.0699 15.8633 47.3105 15.7549 47.5482V47.551C15.3842 48.3757 14.9649 49.2004 14.4658 50.0709V50.0738C13.9068 51.0503 13.2765 52.041 12.5863 53.0204C11.6361 54.3676 10.6066 55.6566 9.50318 56.8804L9.50033 56.8833C9.30354 57.1009 9.10104 57.3186 8.90425 57.5247C8.88428 57.5476 8.86146 57.5677 8.8415 57.5906L8.78446 57.6479C8.75309 57.6822 8.71886 57.7166 8.68749 57.7509L8.68464 57.7538C8.56485 57.8769 8.44221 58.0029 8.31672 58.1289L8.30531 58.1404C8.28841 58.1578 8.27516 58.1784 8.26634 58.201C8.25752 58.2236 8.25332 58.2478 8.25397 58.2721C8.25337 58.2986 8.25811 58.3249 8.26792 58.3496C8.27772 58.3742 8.29238 58.3965 8.31101 58.4153L8.31672 58.421C8.32757 58.4583 8.34827 58.4919 8.37661 58.5184C8.4095 58.5462 8.45061 58.5623 8.49355 58.5642C8.50033 58.5647 8.50713 58.5637 8.51351 58.5613H8.52777C8.62189 58.5441 8.71886 58.527 8.82439 58.5041L8.86717 58.4955L8.87573 58.4926H8.88143L8.89569 58.4897H8.89854L8.91565 58.484H8.91851C8.94132 58.4783 8.96699 58.4754 8.98981 58.4697H8.99551C9.00567 58.4664 9.01622 58.4645 9.02689 58.464H9.02974L9.044 58.4611H9.04685L9.05826 58.4582C9.1809 58.4325 9.30354 58.4038 9.41762 58.3781C9.4322 58.3756 9.44653 58.3718 9.4604 58.3666L9.47751 58.3637L9.49177 58.3609H9.49463L9.603 58.3351L9.64293 58.3265L9.68286 58.3151H9.68571C11.089 57.9506 12.4561 57.4579 13.7699 56.8432C14.9519 56.2998 16.092 55.6691 17.181 54.9561L17.1838 54.9533C17.5204 54.7299 17.8426 54.5037 18.1421 54.2775L18.2049 54.3233C18.4854 54.5233 18.7854 54.6941 19.1004 54.833C19.4327 54.9811 19.7772 55.1 20.13 55.1881C20.4728 55.2741 20.8218 55.3325 21.1739 55.3628C21.3792 55.3828 21.5874 55.3914 21.7956 55.3914C21.9268 55.3914 22.0637 55.3885 22.1949 55.3799C22.5543 55.3598 22.9112 55.308 23.2616 55.2253C23.6088 55.1439 23.947 55.0278 24.2712 54.8788C24.5827 54.7394 24.875 54.5604 25.1411 54.3462C25.4406 54.5724 25.7657 54.7986 26.1023 55.022L26.1051 55.0249C27.1933 55.7398 28.3336 56.3716 29.5162 56.9148C30.8295 57.5307 32.1967 58.0234 33.6004 58.3867H33.6032L33.6374 58.3952L33.6431 58.3981C33.6556 58.404 33.6693 58.4069 33.6831 58.4067L33.7915 58.4325H33.8L33.8257 58.4382C33.8395 58.4433 33.8539 58.4472 33.8685 58.4496C33.9825 58.4754 34.1052 58.5041 34.2278 58.5298L34.2335 58.5327L34.2421 58.5356L34.2592 58.5384L34.2877 58.5441H34.2934L34.3647 58.5585H34.3704L34.3989 58.5642H34.4046L34.4161 58.5671L34.4588 58.5756C34.5644 58.5957 34.6613 58.6157 34.7555 58.6329H34.7669C34.7726 58.6329 34.7811 58.6358 34.7868 58.6358C34.8298 58.6339 34.8709 58.6178 34.9038 58.59C34.933 58.5643 34.9539 58.5304 34.9637 58.4926L34.9665 58.4897C34.985 58.4708 34.9995 58.4485 35.0093 58.4239C35.0191 58.3993 35.0239 58.373 35.0235 58.3466C35.0242 58.3223 35.02 58.2981 35.0112 58.2755C35.0024 58.2528 34.9891 58.2322 34.9722 58.2148L34.9608 58.2034C34.8382 58.0803 34.7155 57.9543 34.5929 57.8283L34.59 57.8254C34.5558 57.791 34.5244 57.7567 34.4931 57.7223L34.436 57.665L34.3733 57.5992C34.1765 57.393 33.9768 57.1754 33.7772 56.9577L33.7743 56.9549C32.6702 55.7316 31.6407 54.4426 30.6912 53.0948C30.0039 52.1155 29.3707 51.1247 28.8117 50.1482V50.1454C28.3155 49.2749 27.8934 48.4502 27.5226 47.6255V47.6226C27.4171 47.3849 27.3144 47.1444 27.2174 46.9096C27.5825 47.0757 27.9647 47.2332 28.3525 47.3849C28.3665 47.3936 28.382 47.3994 28.3982 47.4021C28.8374 47.5711 29.2823 47.7286 29.7158 47.866H29.7187C29.7957 47.8918 29.8755 47.9147 29.9526 47.9405H29.9554L29.9725 47.9462C30.0182 47.9605 30.0609 47.9748 30.1066 47.9863H30.1123L30.1636 48.0035C30.2007 48.0149 30.2349 48.0264 30.272 48.035L30.2834 48.012H30.2891C30.292 48.012 30.292 48.012 30.2948 48.0149C30.4231 48.0521 30.5543 48.0894 30.6855 48.1266H30.6884L30.7084 48.1323L30.734 48.138L30.7711 48.1495L30.7996 48.1581H30.8053L30.8224 48.1638H30.8253L30.8481 48.1695L30.8795 48.1781H30.8823L30.928 48.1896H30.9308C31.0392 48.2182 31.1504 48.2469 31.2645 48.2755H31.2702C31.2833 48.2788 31.2967 48.2807 31.3101 48.2812C31.3533 48.2798 31.3949 48.2642 31.4284 48.2368C31.4619 48.2094 31.4855 48.1717 31.4955 48.1295C31.5048 48.1226 31.5134 48.115 31.5212 48.1065C31.5398 48.0879 31.5542 48.0654 31.5635 48.0408C31.5729 48.0161 31.5769 47.9897 31.5754 47.9634C31.5755 47.9389 31.5708 47.9146 31.5615 47.892C31.5522 47.8694 31.5385 47.8489 31.5212 47.8316C31.4527 47.7658 31.3786 47.6942 31.3044 47.6197C31.2759 47.5911 31.2474 47.5625 31.2189 47.5367C31.0649 47.3821 30.908 47.2246 30.754 47.0642L30.7511 47.0614C30.6057 46.9067 30.4574 46.7492 30.3148 46.5917L30.3119 46.5889C29.7073 45.9217 29.1255 45.2172 28.5836 44.4899C28.3839 44.2207 28.1957 43.9573 28.0189 43.7024C27.591 43.081 27.2231 42.4883 26.8894 41.8927C26.5329 41.2653 26.2185 40.6148 25.9482 39.9455C25.9454 39.9369 25.9397 39.9254 25.9368 39.9168C26.4017 40.0972 26.8866 40.2604 27.4171 40.4122H27.4313L27.4399 40.4151L27.4513 40.4179C27.4884 40.4294 27.5226 40.438 27.5568 40.4466H27.5597L27.5682 40.4494C27.5726 40.4518 27.5776 40.4528 27.5825 40.4523H27.5882L27.5939 40.4552C27.6966 40.4838 27.8049 40.5124 27.9133 40.5411L27.919 40.5439L27.9304 40.5468C27.9846 40.5611 28.036 40.5726 28.0873 40.5869L28.1016 40.5898H28.1044C28.1101 40.5926 28.1187 40.5926 28.1244 40.5955H28.1272C28.1586 40.6041 28.19 40.6098 28.2213 40.6184H28.2413L28.2641 40.6241H28.2869L28.3012 40.627L28.3183 40.6298L28.3269 40.6327H28.3326L28.3497 40.6384L28.3554 40.6413H28.3611L28.3839 40.647L28.3925 40.6499C28.3982 40.6528 28.4067 40.6528 28.4124 40.6556H28.4153C28.4467 40.6642 28.478 40.6699 28.5094 40.6757H28.5123C28.5408 40.6814 28.5664 40.6871 28.5921 40.6928L28.6064 40.6957L28.6263 40.7129C28.6365 40.7162 28.6471 40.7181 28.6577 40.7186C28.668 40.721 28.6786 40.7219 28.6891 40.7215C28.7345 40.7196 28.7778 40.7016 28.8112 40.6706C28.8446 40.6397 28.8661 40.5978 28.8716 40.5525C28.8754 40.5257 28.8735 40.4984 28.8659 40.4723C28.8678 40.4486 28.8651 40.4248 28.8577 40.4022C28.8504 40.3796 28.8386 40.3586 28.8231 40.3406C28.7975 40.312 28.7747 40.2805 28.749 40.2519L28.7319 40.2318C28.6235 40.0972 28.5151 39.9598 28.4067 39.8195L28.3811 39.7851L28.3754 39.7765L28.3183 39.7021L28.3098 39.6935C27.4405 38.5461 26.6368 37.3501 25.9026 36.1112C25.5832 35.5786 25.2666 35.0259 24.9643 34.4675C24.7447 34.0666 24.5336 33.6657 24.334 33.2791C23.5924 31.85 22.9371 30.3774 22.3717 28.8693C22.3147 28.7175 22.2634 28.5686 22.212 28.4254V28.4226C22.1978 28.3796 22.1835 28.3395 22.1692 28.2966C22.0352 27.9071 21.9211 27.5463 21.8184 27.1913C21.8188 27.1678 21.815 27.1445 21.807 27.1225C21.7893 27.0738 21.7535 27.0338 21.7072 27.0109C21.682 27.0042 21.6562 27.0004 21.6302 26.9994ZM19.6993 32.5346C19.8733 32.1767 20.0416 31.8216 20.2013 31.4694C20.0416 31.8245 19.8733 32.1767 19.6993 32.5346Z" fill="#57642F"/>
<rect x="-83.4062" y="-3.22803" width="599.066" height="93.6307" fill="#131027"/>
</g>
</svg>
