<svg width="167" height="67" viewBox="0 0 167 67" fill="none" xmlns="http://www.w3.org/2000/svg">
<g clip-path="url(#clip0_307_137)">
<path d="M51.2658 12.2388H43.6123V17.6635H51.2658V54.6675H56.6906V12.2388H51.2658Z" fill="#131027"/>
<path d="M56.6898 12.0977H43.4707V17.8046H51.1238V54.8086H56.8307V12.0977H56.6898ZM56.5485 54.526H51.406V17.5224H43.7529V12.3798H56.5485V54.526Z" fill="#131027"/>
<path d="M43.2254 20.957H37.7998V26.3818H43.2254V54.6675H48.6502V20.957H43.2254Z" fill="#131027"/>
<path d="M82.2055 20.8232C79.7679 20.8232 70.6221 23.0016 70.6221 33.0652C70.6221 38.9302 74.3874 42.4261 77.3144 43.9741C79.0991 44.8686 81.2533 44.8227 81.2533 44.8227H130.62V38.9372H81.7022C80.9613 38.9372 79.9412 38.7636 79.2859 38.3094C78.0532 37.4567 76.5055 35.8632 76.5055 33.0652C76.5055 27.3411 81.9663 26.7378 82.2436 26.7112C83.0045 26.7153 85.2889 26.8541 86.7919 28.3555C87.8883 29.4506 88.4444 31.1654 88.4444 33.4526H94.3295C94.3295 29.5469 93.1931 26.4311 90.9516 24.1917C87.9047 21.1464 84.1725 20.8232 82.2055 20.8232Z" fill="#131027"/>
<path d="M81.7028 38.7969C81.0267 38.7969 80.0098 38.6388 79.3685 38.194C78.128 37.334 76.6491 35.7495 76.6491 33.0658C76.6491 27.4551 82.0305 26.8743 82.2598 26.8522C83.1055 26.8576 85.2605 27.0226 86.6951 28.456C87.764 29.5237 88.3059 31.2052 88.3059 33.4524V33.5933H94.4723V33.4524C94.4723 29.5081 93.3219 26.3587 91.0531 24.0919C88.7842 21.8251 85.8109 20.6821 82.207 20.6821C81.039 20.6821 78.1181 21.1776 75.4205 23.0542C73.1668 24.6227 70.4814 27.6308 70.4814 33.0658C70.4814 39.9825 75.6617 43.2596 77.2491 44.0996C79.047 45.0006 81.1676 44.9662 81.2573 44.9641H130.762V38.7969H81.7028ZM130.479 44.682H81.2523C81.2282 44.682 79.108 44.716 77.3769 43.8486C75.8272 43.0295 70.762 39.8248 70.762 33.0658C70.762 27.7528 73.383 24.8152 75.5794 23.2868C78.028 21.5831 80.8829 20.9647 82.2045 20.9647C85.7327 20.9647 88.6421 22.0844 90.852 24.2922C93.0385 26.4767 94.1557 29.513 94.1836 33.3119H88.5831C88.5598 31.0594 87.9942 29.3553 86.8938 28.2561C85.385 26.749 83.1411 26.577 82.2463 26.5709C81.9924 26.5946 76.3665 27.2016 76.3665 33.0658C76.3665 35.8719 77.9117 37.5298 79.2075 38.4258C79.9037 38.9075 80.9522 39.0811 81.7033 39.0811H130.479V44.682ZM113.624 14.0566H114.771C115.04 14.0566 115.237 14.1123 115.362 14.2232C115.422 14.276 115.47 14.3416 115.503 14.4151C115.535 14.4887 115.551 14.5685 115.548 14.6488C115.549 14.7651 115.515 14.879 115.452 14.9764C115.385 15.0785 115.285 15.1553 115.17 15.1947C115.046 15.2405 114.874 15.2635 114.655 15.2635H113.623L113.624 14.0566ZM113.624 17.2973V15.6792H114.179C114.269 15.6767 114.359 15.6824 114.447 15.6964C114.525 15.7164 114.599 15.7495 114.666 15.7942C114.759 15.8621 114.842 15.9444 114.91 16.0379C115 16.1534 115.116 16.3205 115.256 16.5388L115.737 17.2956H116.338L115.71 16.3058C115.599 16.1276 115.465 15.9647 115.312 15.8213C115.224 15.748 115.126 15.6871 115.022 15.6403C115.369 15.5919 115.626 15.4792 115.793 15.302C115.876 15.2146 115.94 15.1117 115.983 14.9993C116.026 14.8868 116.047 14.767 116.044 14.6467C116.046 14.4534 115.994 14.2632 115.895 14.0975C115.803 13.9396 115.661 13.8173 115.491 13.7502C115.322 13.685 115.076 13.6523 114.754 13.6523H113.146V17.2973H113.624Z" fill="#131027"/>
<path d="M111.066 15.5485C111.066 16.2421 111.272 16.9203 111.657 17.497C112.043 18.0738 112.59 18.5234 113.231 18.7888C113.872 19.0543 114.577 19.1237 115.258 18.9884C115.938 18.853 116.563 18.5189 117.053 18.0283C117.544 17.5378 117.878 16.9128 118.013 16.2324C118.148 15.5521 118.079 14.8469 117.813 14.2061C117.547 13.5653 117.098 13.0177 116.521 12.6324C115.944 12.2472 115.266 12.0417 114.572 12.042C113.643 12.0433 112.752 12.4132 112.094 13.0705C111.437 13.7278 111.067 14.619 111.066 15.5485ZM111.561 15.5485C111.561 14.9528 111.738 14.3706 112.069 13.8755C112.4 13.3803 112.871 12.9945 113.421 12.7668C113.972 12.539 114.577 12.4796 115.162 12.596C115.746 12.7124 116.282 12.9995 116.703 13.4208C117.124 13.8421 117.411 14.3788 117.527 14.9631C117.643 15.5473 117.583 16.1529 117.355 16.7031C117.127 17.2533 116.741 17.7236 116.245 18.0544C115.75 18.3852 115.168 18.5616 114.572 18.5615C113.773 18.5606 113.008 18.2428 112.443 17.6779C111.878 17.1131 111.561 16.3472 111.56 15.5485H111.561Z" fill="#131027"/>
<path d="M79.849 47.9467C78.1547 47.7207 67.4784 45.7664 67.4784 32.5812C67.4784 18.0622 82.3755 17.8316 83.2314 17.8316C84.2118 17.8316 97.1619 18.3259 97.3302 33.4523H103.215C103.051 15.9649 88.39 12.0088 83.2298 12.0088C77.2124 12.0088 61.5938 15.7045 61.5938 32.5812C61.5938 47.8485 73.1948 53.1463 79.3293 53.8142L79.4857 53.8314L130.789 53.9133L130.799 48.0278L79.849 47.9467Z" fill="#131027"/>
</g>
<defs>
<clipPath id="clip0_307_137">
<rect width="93" height="42.8172" fill="white" transform="translate(37.7998 12)"/>
</clipPath>
</defs>
</svg>
