<svg width="236" height="37" viewBox="0 0 236 37" fill="none" xmlns="http://www.w3.org/2000/svg">
<g clip-path="url(#clip0_328_87)">
<path d="M75.2338 9.8647H77.7177L78.2485 7.42578H69.9424L65.3352 28.7446H73.647L74.1778 26.3085H71.6542L75.2338 9.8647Z" fill="#131027"/>
<path d="M91.5678 7.42578H84.8571L76.5056 17.6173L80.9823 28.7446H87.5681L83.0261 17.6899L91.5678 7.42578Z" fill="#131027"/>
<path d="M134.713 7.42578L123.481 20.4473L126.314 7.42578H120.494L115.887 28.7446H121.675L132.897 15.8405L130.106 28.7446H135.897L140.536 7.42578H134.713Z" fill="#131027"/>
<path d="M136.343 1.94434H126.617L125.987 4.79952H135.721L136.343 1.94434Z" fill="#131027"/>
<path d="M235.8 7.42578H227.494L226.957 9.8647H229.453L225.899 26.3085H223.386L222.847 28.7446H231.159L235.8 7.42578Z" fill="#131027"/>
<path d="M224.536 20.5227L225.634 15.4354H219.494L221.237 7.42578H215.415L210.808 28.7446H216.596L218.387 20.5227H224.536Z" fill="#131027"/>
<path d="M209.218 11.9935L210.206 7.42578H193.974L189.367 28.7446H205.829L206.816 24.1769H196.149L197.012 20.2126H206.751L207.691 15.8572H197.96L198.8 11.9935H209.218Z" fill="#131027"/>
<path d="M102.358 7.42578L89.8872 28.7446H95.9252L98.128 25.1128H106.204L106.826 28.7446H112.472L109.193 7.42578H102.358ZM100.388 20.5563L104.813 12.7897L105.895 20.5563H100.388Z" fill="#131027"/>
<path d="M160.276 7.42578H153.44L143.641 24.1881H140.953L139.045 33.0079H144.853L145.781 28.7446H158.4L157.477 33.0079H163.285L165.207 24.1769H162.856L160.276 7.42578ZM155.751 13.4099L157.253 24.1853H149.611L155.751 13.4099Z" fill="#131027"/>
<path d="M170.935 11.9936H179.826L173.706 16.1842L172.982 19.5366H178.069C179.309 19.6819 179.937 20.2155 179.937 21.1402C179.929 21.3416 179.908 21.5422 179.874 21.7409C179.712 22.4941 179.265 23.1588 178.625 23.6015C177.908 24.0836 177.052 24.3264 176.184 24.2943C174.481 24.2943 173.541 23.8278 173.345 22.8975C173.325 22.6809 173.325 22.4631 173.345 22.2465H167.492C167.382 22.6434 167.33 23.0534 167.336 23.4646C167.336 23.4869 167.336 23.5177 167.336 23.5372C167.339 24.0311 167.43 24.5207 167.602 24.9844C167.73 25.3513 167.902 25.702 168.113 26.0292C168.634 26.832 169.485 27.4838 170.668 27.9848C171.851 28.4858 173.356 28.741 175.182 28.7503C176.841 28.7665 178.489 28.4921 180.05 27.9401C181.458 27.4527 182.736 26.6569 183.786 25.613C184.76 24.6398 185.426 23.4091 185.702 22.0705C185.817 21.5574 185.879 21.0342 185.887 20.5088C185.888 20.1721 185.855 19.8361 185.787 19.5059C185.642 18.6953 185.219 17.9581 184.589 17.4162C183.899 16.8529 183.091 16.4473 182.222 16.2289C181.995 16.1674 181.751 16.1171 181.504 16.0696C181.348 16.0389 181.2 15.9998 181.035 15.9746L180.922 15.9383L186.758 11.9852L187.746 7.41748H171.923L170.935 11.9936Z" fill="#131027"/>
<path d="M1.66277 33.0942L0.799805 36.9999H47.6357L48.4873 33.0942H1.66277Z" fill="#131027"/>
<path d="M31.5886 0L20.1543 13.9518L24.9404 25.8475H11.1754L16.0751 3.33849H19.4758L20.2025 0H8.8335L2.52588 29.186H35.3017L29.0849 14.0496L38.0013 3.33849H46.9943H47L42.1344 25.8475H38.6939L37.9587 29.186H49.3391L55.6893 0H31.5886Z" fill="#131027"/>
</g>
<defs>
<clipPath id="clip0_328_87">
<rect width="235" height="37" fill="white" transform="translate(0.799805)"/>
</clipPath>
</defs>
</svg>
