<svg width="167" height="67" viewBox="0 0 167 67" fill="none" xmlns="http://www.w3.org/2000/svg">
<g clip-path="url(#clip0_307_147)">
<g clip-path="url(#clip1_307_147)">
<path fill-rule="evenodd" clip-rule="evenodd" d="M129.116 18.643C130.817 18.643 132.329 17.1312 132.329 15.2407C132.329 13.4452 130.817 12.0273 129.116 12.0273C127.32 12.0273 125.714 13.4447 125.714 15.2407C125.714 17.1312 127.32 18.643 129.116 18.643ZM129.116 18.1709C127.416 18.1709 126.186 16.9424 126.186 15.2413C126.186 13.729 127.416 12.5005 129.116 12.5005C129.842 12.5009 130.539 12.7898 131.053 13.3037C131.567 13.8176 131.856 14.5145 131.856 15.2413C131.856 16.9424 130.628 18.1709 129.116 18.1709Z" fill="#131027"/>
<path fill-rule="evenodd" clip-rule="evenodd" d="M130.968 15.0908H132.135C132.622 15.0908 132.719 15.3823 132.719 15.6743C132.719 15.7721 132.719 16.3551 132.816 16.6471H133.4V16.4528C133.303 16.3551 133.206 16.3551 133.206 16.1607V15.5772C133.206 15.0908 133.012 14.9936 132.816 14.8964C133.108 14.7021 133.303 14.5072 133.303 13.9242C133.303 13.2434 132.719 12.9514 132.135 12.9514H130.482V16.6477H130.968V15.0908ZM130.968 13.4378H132.135C132.427 13.4378 132.816 13.4378 132.816 14.0213C132.816 14.5077 132.427 14.6049 132.038 14.6049H130.968V13.4378ZM35.5537 11.2979H80.2941V56.1354H35.5537V11.2979ZM127.077 11.2979H82.2397V56.1354L127.077 11.2979ZM70.7713 50.3947H74.2104C79.2736 50.3947 80.2291 45.9574 80.0377 44.6757C79.7513 41.5206 77.4586 39.5483 74.3058 39.5483H65.899V55.4231H70.7713V50.3947ZM70.7713 46.6475V43.1964H72.8726C74.5922 43.1964 75.2608 43.591 75.2608 44.8727C75.2608 45.4643 75.2608 46.6475 73.3504 46.6475H70.7713ZM55.2955 52.0705H60.1678L61.4096 55.4225H66.5683L60.7405 39.5483H54.9132L48.9905 55.4231H53.9583L55.2955 52.0705ZM57.8751 43.9856L59.5946 48.7179H56.2515L57.8751 43.9856ZM35.8066 50.3948V51.2825C35.8066 54.4375 39.5321 55.6207 43.0671 55.6207C47.8435 55.6207 50.7099 53.8459 50.7099 50.3953C50.7099 44.8733 41.1567 46.5496 41.1567 43.2961C41.1567 42.1123 42.0167 41.7183 43.354 41.7183C44.2135 41.7183 44.5004 41.9153 44.7867 42.1129C45.3599 42.5074 45.3599 43.0005 45.3599 43.8877H50.4231V43.4931C50.4231 41.1267 48.4167 39.1543 43.354 39.1543C37.813 39.1543 36.0935 41.3237 36.0935 43.8871C36.0935 49.5077 45.6467 47.7323 45.6467 51.1834C45.6467 51.8735 45.0735 52.8597 43.0671 52.8597C41.443 52.8597 40.8698 52.0711 40.8698 50.8873V50.3948H35.8066Z" fill="#131027"/>
</g>
</g>
<defs>
<clipPath id="clip0_307_147">
<rect width="166" height="67" fill="white" transform="translate(0.799805)"/>
</clipPath>
<clipPath id="clip1_307_147">
<rect width="100" height="100" fill="white" transform="translate(33.7998 -16)"/>
</clipPath>
</defs>
</svg>
