<svg width="150" height="23" viewBox="0 0 150 23" fill="none" xmlns="http://www.w3.org/2000/svg">
<g clip-path="url(#clip0_417_265)">
<path d="M11.109 0.679489L0 22.746H5.733L7.9575 18.114H15.579L16.26 22.746H21.9915L18.21 0.679489H11.109ZM9.9 14.0625L13.65 6.23999H13.8225L14.9715 14.0625H9.9Z" fill="#131027"/>
<path d="M68.0955 0.679489H49.443L48.711 5.01149H55.413L52.482 22.746H57.741L60.6705 5.01149H67.362L68.0955 0.679489Z" fill="#131027"/>
<path d="M39.399 13.3935H39.216L32.6205 0.679489H28.0305L24.3675 22.746H29.7015L31.824 10.011H31.974L38.6235 22.746H43.1475L46.812 0.679489H41.4885L39.399 13.3935Z" fill="#131027"/>
<path d="M122.631 5.01149H132.362L133.094 0.679489H118.031L117.479 4.00199C117.676 4.37824 117.852 4.76593 118.004 5.16299C118.817 7.28099 118.923 9.71549 118.487 12.363C118.055 14.913 117.189 17.163 115.835 19.053C115.502 19.5161 115.143 19.9593 114.759 20.3805L114.369 22.737H119.7L121.166 13.8795H129.936L130.67 9.53699H121.899L122.631 5.01149Z" fill="#131027"/>
<path d="M115.587 15.3945C115.598 15.3705 115.607 15.345 115.616 15.321C115.645 15.252 115.671 15.183 115.696 15.114C115.719 15.0555 115.742 14.9985 115.763 14.94C115.784 14.8815 115.812 14.8005 115.838 14.7315C115.863 14.6625 115.879 14.6115 115.899 14.5515C115.918 14.4915 115.945 14.4015 115.968 14.3385L116.027 14.154L116.089 13.935L116.143 13.749C116.164 13.674 116.184 13.599 116.204 13.521C116.223 13.443 116.237 13.3965 116.252 13.3335C116.267 13.2705 116.291 13.173 116.309 13.092C116.327 13.011 116.337 12.972 116.35 12.912C116.37 12.8205 116.388 12.7275 116.407 12.636C116.418 12.5835 116.43 12.5325 116.439 12.486C116.468 12.336 116.494 12.1965 116.518 12.048C116.544 11.898 116.567 11.748 116.588 11.598C116.588 11.547 116.6 11.4975 116.607 11.448C116.621 11.349 116.633 11.25 116.645 11.148L116.663 10.968C116.672 10.8825 116.68 10.7955 116.688 10.71C116.695 10.6245 116.697 10.584 116.703 10.5225C116.709 10.461 116.715 10.3605 116.72 10.281C116.724 10.2015 116.72 10.1535 116.729 10.0905C116.738 10.0275 116.729 9.94049 116.739 9.85949C116.75 9.77849 116.739 9.73199 116.739 9.66899C116.739 9.60599 116.739 9.51899 116.739 9.44699C116.739 9.37499 116.739 9.32099 116.739 9.25799C116.739 9.19499 116.739 9.10799 116.739 9.04349C116.739 8.97899 116.739 8.91899 116.739 8.85599C116.739 8.79299 116.731 8.71799 116.727 8.64899C116.727 8.63249 116.727 8.61599 116.727 8.59949C116.672 7.67047 116.478 6.7549 116.152 5.88299C115.503 4.19299 114.453 2.90399 113.002 2.01599C111.551 1.12799 109.849 0.682493 107.895 0.679493C106.053 0.668955 104.235 1.09619 102.591 1.92599C100.92 2.77671 99.4841 4.02602 98.4105 5.56349C97.2705 7.16349 96.5125 9.11949 96.1365 11.4315C95.7365 13.8315 95.862 15.8755 96.513 17.5635C97.164 19.2515 98.214 20.5335 99.663 21.4095C101.109 22.2905 102.821 22.7305 104.799 22.7295C106.621 22.7414 108.42 22.3215 110.049 21.504C111.711 20.6638 113.14 19.4274 114.21 17.904C114.765 17.1246 115.227 16.2823 115.584 15.3945H115.587ZM111.332 11.4315C111.088 12.8715 110.672 14.0945 110.085 15.1005C109.569 16.0376 108.823 16.8275 107.916 17.3955C107.033 17.9236 106.02 18.1957 104.991 18.1815C104.02 18.1815 103.22 17.9545 102.591 17.5005C101.962 17.0465 101.532 16.3615 101.302 15.4455C101.078 14.5385 101.085 13.4035 101.323 12.0405C101.554 10.6005 101.963 9.37399 102.549 8.36099C103.069 7.41143 103.824 6.6106 104.741 6.03449C105.632 5.4934 106.657 5.21376 107.7 5.22749C108.685 5.22749 109.485 5.46499 110.1 5.93999C110.715 6.41499 111.126 7.11149 111.332 8.02949C111.55 8.95049 111.55 10.0845 111.332 11.4315Z" fill="#131027"/>
<path d="M70.6995 0.679489L67.0365 22.746H72.3705L76.0335 0.679489H70.6995Z" fill="#131027"/>
<path d="M149.268 5.01149L150 0.679489H134.937L131.273 22.746H136.607L138.072 13.8795H146.843L147.576 9.53699H138.806L139.538 5.01149H149.268Z" fill="#131027"/>
<path d="M92.782 1.63799C91.683 0.998989 90.307 0.679489 88.654 0.679489H79.5385L75.8755 22.746H81.2095L82.351 15.894H85.951C87.651 15.894 89.1705 15.5815 90.5095 14.9565C91.8047 14.3644 92.9306 13.4567 93.784 12.3165C94.6561 11.1409 95.223 9.76743 95.434 8.31899C95.685 6.80399 95.5805 5.47149 95.1205 4.32149C94.6718 3.1853 93.8461 2.23787 92.782 1.63799V1.63799ZM89.9155 8.31899C89.8161 8.95843 89.5714 9.56654 89.2 10.0965C88.8321 10.6059 88.3379 11.0107 87.766 11.271C87.1061 11.5661 86.3886 11.7096 85.666 11.691H83.05L84.169 4.97849H86.8C87.6 4.97849 88.2465 5.11499 88.7395 5.38799C89.2202 5.63439 89.5938 6.04855 89.7895 6.55199C89.9882 7.11923 90.0317 7.72929 89.9155 8.31899V8.31899Z" fill="#131027"/>
</g>
<defs>
<clipPath id="clip0_417_265">
<rect width="150" height="22.0665" fill="white" transform="translate(0 0.679489)"/>
</clipPath>
</defs>
</svg>
