<svg width="137" height="53" viewBox="0 0 137 53" fill="none" xmlns="http://www.w3.org/2000/svg">
<g clip-path="url(#clip0_307_90)">
<mask id="mask0_307_90" style="mask-type:alpha" maskUnits="userSpaceOnUse" x="-1" y="7" width="139" height="39">
<path d="M45.0215 18.0322C44.7014 18.0414 44.3813 18.0597 44.052 18.0597C43.9331 18.0597 43.8051 18.0505 43.677 18.0505C43.6222 18.0505 43.5673 18.0505 43.5033 18.0414V23.0781C43.5033 23.491 43.5216 24.7203 43.8234 25.0506C45.0032 26.4268 46.0916 25.5827 46.0916 26.5002H37.915C37.915 25.2983 40.5033 27.0139 40.5033 23.0781V11.6835C40.5033 7.84858 37.915 9.06878 37.915 7.93115H44.7105C46.0276 7.93115 47.7562 7.96785 49.0184 8.36235C49.9879 8.65593 50.7836 9.21557 51.4421 9.98622C52.1281 10.8027 52.4482 11.7569 52.4482 12.8211C52.4482 13.9771 52.0732 15.0046 51.3049 15.8762C50.4909 16.7936 49.3202 17.3074 48.1495 17.6102L51.6891 22.5276C52.2287 23.2799 53.0427 24.3442 53.8293 24.8488C55.878 26.1699 56.3262 25.6286 56.3262 26.5093H51.1586L45.0215 18.0322ZM43.5124 16.7294C43.5856 16.7294 43.6587 16.7294 43.7319 16.7294C43.8234 16.7294 43.924 16.7386 44.0246 16.7386C45.2868 16.7386 46.741 16.5276 47.7288 15.6744C48.5519 14.9679 48.9544 14.0688 48.9544 12.9863C48.9544 11.9954 48.68 11.0963 47.9757 10.3807C47.2715 9.66512 46.3569 9.38988 45.3599 9.38988C44.7654 9.38988 44.1161 9.4908 43.5215 9.6009L43.5124 16.7294Z" fill="white"/>
<path d="M130.3 20.4543H123.605L122.453 23.1607C122.288 23.5552 122.014 24.2158 122.014 24.647C122.014 26.0782 124.099 25.4085 124.099 26.5002H117.962C117.962 25.7754 118.511 26.2158 119.489 25.1057C120.075 24.5461 120.624 23.3167 120.944 22.5736L127.346 7.94039H128.096L134.434 22.7387C136.154 26.8856 137.553 25.2066 137.553 26.5094H129.989C129.989 25.3534 131.818 26.4544 131.818 24.6837C131.818 24.1791 131.498 23.3717 131.306 22.913L130.3 20.4543ZM129.706 19.0231L126.998 12.5184L124.218 19.0231H129.706Z" fill="white"/>
<path d="M69.4326 26.5002C69.4326 24.9956 72.0209 27.1332 72.0209 23.0781V11.3532C72.0209 7.29812 69.4326 9.43576 69.4326 7.93115H77.719C77.719 9.43576 75.1306 7.29812 75.1306 11.3532V23.0781C75.1306 27.1332 77.719 24.9956 77.719 26.5002H69.4326Z" fill="white"/>
<path d="M102.532 18.5918V23.1332C102.532 26.7846 105.121 25.3075 105.121 26.5002H96.9442C96.9442 25.5552 98.2795 26.3992 99.2764 24.9589C99.5142 24.6102 99.5325 23.5368 99.5325 23.1332V18.968L94.6302 11.3624C94.3101 10.8761 93.8619 10.1514 93.4595 9.73851C91.8864 8.06877 91.3284 8.86694 91.3284 7.94033H99.4685C99.4685 8.97704 97.3923 8.28895 97.3923 9.83026C97.3923 10.2156 97.9685 11.1238 98.1789 11.445L101.728 16.9863L105.093 11.7018C107.554 7.83941 104.042 9.24309 104.042 7.93115H110.782C110.782 8.74768 110.179 7.96785 108.148 9.9954C107.663 10.5092 107.206 11.2339 106.84 11.8395L102.532 18.5918Z" fill="white"/>
<path d="M3.65351 12.0597V23.1332C3.65351 23.5461 3.67181 24.7479 3.96448 25.0782C5.13519 26.4085 6.24187 25.7754 6.24187 26.5002H-0.553711C-0.553711 25.7663 0.708457 26.4911 1.77856 24.9589C2.01636 24.6103 2.03465 23.5369 2.03465 23.1332V11.2982C2.03465 10.8212 2.00721 10.0964 1.7877 9.656C1.65966 9.39912 1.431 9.23398 1.1932 9.10554C-0.315911 8.33489 -0.553711 8.4725 -0.553711 7.94039H4.98885L11.3546 21.7938L17.6563 7.94039H23.1439C23.1439 8.95875 20.5556 8.14223 20.5556 11.3074V23.1424C20.5556 23.5644 20.5739 24.7479 20.8757 25.0782C22.0647 26.4085 23.1439 25.5553 23.1439 26.5002H14.9673C14.9673 25.6745 16.2569 26.4911 17.2996 24.9589C17.5374 24.6103 17.5557 23.5461 17.5557 23.1332V12.0689L10.9796 26.5002H10.257L3.65351 12.0597Z" fill="white"/>
<path d="M90.3773 40.1883L91.1638 41.7939L92.9382 42.0507L91.6577 43.2985L91.9595 45.0691L90.3773 44.2343L88.795 45.0691L89.0968 43.2985L87.8163 42.0507L89.5815 41.7939L90.3773 40.1883Z" fill="white"/>
<path d="M79.4385 40.1883L80.225 41.7939L81.9994 42.0507L80.7189 43.2985L81.0207 45.0691L79.4385 44.2343L77.8562 45.0691L78.158 43.2985L76.8775 42.0507L78.6427 41.7939L79.4385 40.1883Z" fill="white"/>
<path d="M68.4997 40.1883L69.2862 41.7939L71.0606 42.0507L69.7801 43.2985L70.0819 45.0691L68.4997 44.2343L66.9174 45.0691L67.2192 43.2985L65.9387 42.0507L67.7039 41.7939L68.4997 40.1883Z" fill="white"/>
<path d="M57.5609 40.1883L58.3475 41.7939L60.1127 42.0507L58.8413 43.2985L59.1432 45.0691L57.5609 44.2343L55.9786 45.0691L56.2804 43.2985L55 42.0507L56.7652 41.7939L57.5609 40.1883Z" fill="white"/>
<path d="M99.5417 42.4636V43.6654L119.023 43.0966V43.0324L99.5417 42.4636Z" fill="white"/>
<path d="M46.6221 40.1883L45.8264 41.7939L44.0612 42.0507L45.3416 43.2985L45.0398 45.0691L46.6221 44.2343L48.2044 45.0691L47.9025 43.2985L49.183 42.0507L47.4087 41.7939L46.6221 40.1883Z" fill="white"/>
<path d="M37.4577 42.4636V43.6654L17.9672 43.0966V43.0324L37.4577 42.4636Z" fill="white"/>
</mask>
<g mask="url(#mask0_307_90)">
<rect x="-7.80762" y="-7.87451" width="164.929" height="60.2209" fill="#131027"/>
</g>
</g>
<defs>
<clipPath id="clip0_307_90">
<rect width="137" height="51.2261" fill="white" transform="translate(0 0.886719)"/>
</clipPath>
</defs>
</svg>
