<svg width="167" height="67" viewBox="0 0 167 67" fill="none" xmlns="http://www.w3.org/2000/svg">
<path d="M23.8879 28.6422C23.8879 28.2765 23.8317 27.9484 23.7192 27.6578C23.6161 27.3578 23.4192 27.0859 23.1286 26.8422C22.8379 26.589 22.4301 26.3406 21.9051 26.0968C21.3801 25.8531 20.7004 25.6 19.8661 25.3375C18.9379 25.0375 18.0567 24.7 17.2223 24.325C16.3973 23.95 15.666 23.514 15.0285 23.0171C14.4004 22.5109 13.9035 21.9249 13.5379 21.2593C13.1816 20.5937 13.0035 19.8203 13.0035 18.939C13.0035 18.0859 13.191 17.3124 13.566 16.6187C13.941 15.9155 14.466 15.3155 15.141 14.8187C15.816 14.3124 16.6129 13.9234 17.5317 13.6515C18.4598 13.3796 19.477 13.2437 20.5832 13.2437C22.0926 13.2437 23.4098 13.5155 24.5348 14.0593C25.6598 14.603 26.5317 15.3484 27.1505 16.2952C27.7786 17.2421 28.0926 18.3249 28.0926 19.5437H23.902C23.902 18.9437 23.7754 18.4187 23.5223 17.9687C23.2786 17.5093 22.9036 17.1484 22.3973 16.8859C21.9004 16.6234 21.2723 16.4921 20.5129 16.4921C19.7817 16.4921 19.1723 16.6046 18.6848 16.8296C18.1973 17.0452 17.8317 17.3406 17.5879 17.7156C17.3442 18.0812 17.2223 18.4937 17.2223 18.9531C17.2223 19.2999 17.3067 19.614 17.4754 19.8953C17.6535 20.1765 17.916 20.439 18.2629 20.6828C18.6098 20.9265 19.0364 21.1562 19.5426 21.3718C20.0489 21.5874 20.6348 21.7984 21.3004 22.0046C22.4161 22.3421 23.3958 22.7218 24.2395 23.1437C25.0926 23.5656 25.8051 24.039 26.377 24.564C26.9489 25.089 27.3801 25.6843 27.6708 26.35C27.9614 27.0156 28.1067 27.7703 28.1067 28.614C28.1067 29.5047 27.9333 30.3015 27.5864 31.0047C27.2395 31.7078 26.738 32.3031 26.0817 32.7906C25.4255 33.2781 24.6426 33.6484 23.7333 33.9016C22.8239 34.1547 21.8067 34.2813 20.6817 34.2813C19.6692 34.2813 18.6707 34.15 17.6864 33.8875C16.702 33.6156 15.8067 33.2078 15.0004 32.6641C14.2035 32.1203 13.566 31.4266 13.0879 30.5828C12.6098 29.739 12.3707 28.7406 12.3707 27.5875H16.6035C16.6035 28.225 16.702 28.764 16.8989 29.2047C17.0957 29.6453 17.3723 30.0015 17.7285 30.2734C18.0942 30.5453 18.5254 30.7422 19.0223 30.864C19.5286 30.9859 20.0817 31.0469 20.6817 31.0469C21.4129 31.0469 22.0129 30.9437 22.4817 30.7375C22.9598 30.5312 23.3114 30.2453 23.5364 29.8797C23.7708 29.514 23.8879 29.1015 23.8879 28.6422ZM42.8443 27.2078H47.049C46.9646 28.5859 46.5849 29.8094 45.9099 30.8781C45.2443 31.9469 44.3115 32.7812 43.1115 33.3812C41.9208 33.9812 40.4865 34.2813 38.8083 34.2813C37.4958 34.2813 36.3192 34.0563 35.2786 33.6062C34.238 33.1469 33.3474 32.4906 32.6067 31.6375C31.8755 30.7844 31.3177 29.7531 30.9333 28.5437C30.5489 27.3343 30.3567 25.9797 30.3567 24.4796V23.0593C30.3567 21.5593 30.5536 20.2046 30.9473 18.9952C31.3505 17.7765 31.9224 16.7406 32.663 15.8874C33.413 15.0343 34.3083 14.378 35.3489 13.9187C36.3896 13.4593 37.5521 13.2296 38.8364 13.2296C40.5427 13.2296 41.9818 13.539 43.1537 14.1577C44.3349 14.7765 45.249 15.6296 45.8958 16.7171C46.5521 17.8046 46.9459 19.0421 47.0771 20.4296H42.8583C42.8115 19.6046 42.6474 18.9062 42.3661 18.3343C42.0849 17.7531 41.6583 17.3171 41.0865 17.0265C40.524 16.7265 39.7739 16.5765 38.8364 16.5765C38.1333 16.5765 37.5193 16.7077 36.9942 16.9702C36.4692 17.2327 36.0286 17.6312 35.6724 18.1656C35.3161 18.6999 35.0489 19.3749 34.8708 20.1906C34.7021 20.9968 34.6177 21.9437 34.6177 23.0312V24.4796C34.6177 25.539 34.6974 26.4718 34.8567 27.2781C35.0161 28.075 35.2599 28.75 35.588 29.3031C35.9255 29.8469 36.3567 30.2594 36.8817 30.5406C37.4161 30.8125 38.0583 30.9484 38.8083 30.9484C39.6896 30.9484 40.4161 30.8078 40.988 30.5265C41.5599 30.2453 41.9958 29.8281 42.2958 29.275C42.6052 28.7219 42.788 28.0328 42.8443 27.2078ZM58.1443 17.0265L52.5756 34H48.0896L55.6975 13.5249H58.5522L58.1443 17.0265ZM62.7709 34L57.1881 17.0265L56.7381 13.5249H59.6209L67.2709 34H62.7709ZM62.5178 26.3781V29.6828H51.7037V26.3781H62.5178ZM85.8335 13.5249V34H81.6148L73.3882 20.2749V34H69.1694V13.5249H73.3882L81.6288 27.264V13.5249H85.8335ZM109.838 30.7094V34H99.5305V30.7094H109.838ZM100.895 13.5249V34H96.6758V13.5249H100.895ZM116.743 13.5249V34H112.538V13.5249H116.743ZM129.427 13.5249V34H125.223V13.5249H129.427ZM135.727 13.5249V16.8296H119.021V13.5249H135.727ZM151.871 30.7094V34H140.973V30.7094H151.871ZM142.351 13.5249V34H138.132V13.5249H142.351ZM150.451 21.864V25.0703H140.973V21.864H150.451ZM151.857 13.5249V16.8296H140.973V13.5249H151.857Z" fill="#131027"/>
<path d="M13.6421 50.113V57.959H12.2895V50.113H13.6421ZM28.1691 50.113V57.959H26.8165L23.2976 52.3385V57.959H21.9451V50.113H23.2976L26.8273 55.7442V50.113H28.1691ZM39.4682 50.113V57.959H38.1264V50.113H39.4682ZM41.9308 50.113V51.1907H35.6853V50.113H41.9308ZM54.7226 56.8866V57.959H50.5571V56.8866H54.7226ZM50.9397 50.113V57.959H49.5871V50.113H50.9397ZM54.1783 53.3893V54.4455H50.5571V53.3893H54.1783ZM54.6957 50.113V51.1907H50.5571V50.113H54.6957ZM68.4736 53.9498V56.9459C68.3622 57.0932 68.188 57.2549 67.9509 57.4309C67.7174 57.6033 67.4066 57.7524 67.0186 57.8782C66.6306 58.0039 66.1474 58.0668 65.5691 58.0668C65.0769 58.0668 64.626 57.9841 64.2165 57.8189C63.8069 57.65 63.4531 57.4039 63.1549 57.0806C62.8603 56.7573 62.6322 56.3639 62.4705 55.9005C62.3089 55.4335 62.228 54.9018 62.228 54.3054V53.7612C62.228 53.1684 62.3017 52.6403 62.449 52.1769C62.5999 51.7098 62.8154 51.3147 63.0956 50.9913C63.3758 50.668 63.7135 50.4237 64.1087 50.2585C64.5075 50.0896 64.9583 50.0052 65.4613 50.0052C66.1043 50.0052 66.636 50.113 67.0563 50.3285C67.4803 50.5405 67.8072 50.8351 68.0371 51.2123C68.267 51.5895 68.4125 52.0206 68.4736 52.5056H67.148C67.1048 52.2326 67.0204 51.9883 66.8947 51.7727C66.7725 51.5572 66.5965 51.3883 66.3666 51.2662C66.1403 51.1404 65.8457 51.0776 65.4828 51.0776C65.1703 51.0776 64.8955 51.1368 64.6584 51.2554C64.4213 51.3739 64.2237 51.5482 64.0656 51.7781C63.9111 52.008 63.7944 52.2882 63.7153 52.6187C63.6363 52.9493 63.5968 53.3265 63.5968 53.7504V54.3054C63.5968 54.7365 63.6417 55.1191 63.7315 55.4532C63.8249 55.7873 63.9578 56.0693 64.1303 56.2993C64.3063 56.5292 64.52 56.7034 64.7715 56.822C65.023 56.9369 65.3068 56.9944 65.6229 56.9944C65.9319 56.9944 66.1852 56.9693 66.3828 56.919C66.5803 56.8651 66.7366 56.8022 66.8516 56.7304C66.9701 56.6549 67.0617 56.5831 67.1264 56.5148V54.9575H65.4936V53.9498H68.4736ZM76.5933 50.113H79.3685C79.9649 50.113 80.4732 50.2028 80.8935 50.3824C81.3139 50.562 81.6354 50.8279 81.8581 51.18C82.0845 51.5284 82.1976 51.9595 82.1976 52.4732C82.1976 52.8648 82.1258 53.2097 81.9821 53.5079C81.8384 53.8061 81.6354 54.0575 81.3731 54.2623C81.1109 54.4635 80.7983 54.6198 80.4355 54.7311L80.026 54.9305H77.531L77.5202 53.8582H79.3901C79.7134 53.8582 79.9828 53.8007 80.1984 53.6857C80.4139 53.5708 80.5756 53.4145 80.6834 53.2169C80.7948 53.0157 80.8504 52.7894 80.8504 52.5379C80.8504 52.2649 80.7965 52.0278 80.6888 51.8266C80.5846 51.6218 80.4229 51.4656 80.2038 51.3578C79.9846 51.2464 79.7062 51.1907 79.3685 51.1907H77.9459V57.959H76.5933V50.113ZM81.0714 57.959L79.2284 54.4348L80.6457 54.4294L82.5156 57.8889V57.959H81.0714ZM93.2219 51.1584L90.8778 57.959H89.4606L92.4136 50.113H93.3189L93.2219 51.1584ZM95.1834 57.959L92.8339 51.1584L92.7315 50.113H93.6422L96.606 57.959H95.1834ZM95.0702 55.0491V56.1214H90.8024V55.0491H95.0702ZM106.655 50.113V57.959H105.313V50.113H106.655ZM109.118 50.113V51.1907H102.872V50.113H109.118ZM118.218 50.113V57.959H116.866V50.113H118.218ZM132.777 53.8204V54.2515C132.777 54.8443 132.7 55.376 132.546 55.8466C132.391 56.3172 132.17 56.7178 131.883 57.0483C131.599 57.3788 131.258 57.6321 130.859 57.8081C130.46 57.9805 130.018 58.0668 129.533 58.0668C129.052 58.0668 128.612 57.9805 128.213 57.8081C127.818 57.6321 127.475 57.3788 127.184 57.0483C126.893 56.7178 126.667 56.3172 126.505 55.8466C126.347 55.376 126.268 54.8443 126.268 54.2515V53.8204C126.268 53.2277 126.347 52.6978 126.505 52.2308C126.663 51.7601 126.886 51.3596 127.173 51.0291C127.464 50.695 127.807 50.4417 128.202 50.2693C128.601 50.0932 129.041 50.0052 129.523 50.0052C130.008 50.0052 130.449 50.0932 130.848 50.2693C131.247 50.4417 131.59 50.695 131.877 51.0291C132.165 51.3596 132.386 51.7601 132.54 52.2308C132.698 52.6978 132.777 53.2277 132.777 53.8204ZM131.425 54.2515V53.8097C131.425 53.3714 131.382 52.9852 131.295 52.6511C131.213 52.3134 131.089 52.0314 130.924 51.805C130.762 51.5751 130.563 51.4027 130.326 51.2877C130.088 51.1692 129.821 51.1099 129.523 51.1099C129.224 51.1099 128.959 51.1692 128.725 51.2877C128.492 51.4027 128.292 51.5751 128.127 51.805C127.965 52.0314 127.841 52.3134 127.755 52.6511C127.669 52.9852 127.626 53.3714 127.626 53.8097V54.2515C127.626 54.6898 127.669 55.0778 127.755 55.4155C127.841 55.7532 127.967 56.0388 128.132 56.2723C128.301 56.5022 128.502 56.6765 128.736 56.795C128.969 56.91 129.235 56.9675 129.533 56.9675C129.835 56.9675 130.103 56.91 130.336 56.795C130.57 56.6765 130.767 56.5022 130.929 56.2723C131.091 56.0388 131.213 55.7532 131.295 55.4155C131.382 55.0778 131.425 54.6898 131.425 54.2515ZM146.976 50.113V57.959H145.623L142.104 52.3385V57.959H140.752V50.113H142.104L145.634 55.7442V50.113H146.976Z" fill="#131027"/>
</svg>
